<?xml version="1.0" encoding="UTF-8"?>
<!DOCTYPE svg PUBLIC "-//W3C//DTD SVG 1.1//EN" "http://www.w3.org/Graphics/SVG/1.1/DTD/svg11.dtd">
<svg enable-background="new 0 0 157.68 236.16" viewBox="0 0 157.68 236.16" xml:space="preserve" xmlns="http://www.w3.org/2000/svg">

	<path d="m102.96,9.6c-1.273-.086-2.692-.027-3.12-.96 1.005-.504 3.081-.274 3.12.96z" fill-rule="evenodd"></path>
	<path d="m108.96,11.04c1.499.452.615,2.047.72,3.6 .781.419 2.204.196 2.16,1.44-.661-.055-3.277-.026-3.6-1.2 .581-.939.298-2.742.72-3.84z" fill-rule="evenodd"></path>
	<path d="m116.16,14.64c-.987.434-2.045,1.872-3.36,1.2 .518-1.069 2.045-2.35 3.36-1.2z" fill-rule="evenodd"></path>
	<path d="m43.92,15.36c.396.373-.082.936-.24,1.44-.679.199-.622-.338-1.2-.24 .316-.564.576-1.185 1.44-1.2z" fill-rule="evenodd"></path>
	<path d="m48.72,15.6c-.601.839-1.929.951-2.4,1.92 .352.608.992.928.96,1.92-1.01.713-2.168-.132-2.64-.72-.756.364-1.171,1.069-2.16,1.2 1.628-1.892 3.622-3.418 6.24-4.32z" fill-rule="evenodd"></path>
	<path d="m111.12,21.84c-.134.906-.751,1.33-1.68,1.44-.741.7-1.125,1.756-2.881,1.44-.33-.31-.237-1.042-.239-1.68 .693-.298 1.094-.123 1.199.72 1.356-.356 2.125-4.666 3.601-1.92z" fill-rule="evenodd"></path>
	<path d="m93.12,23.52c.278-.202.644-.316 1.2-.24v1.2c.749-.131.758-1.002 1.68-.96 .654.651-.621.597-.48,1.44-1.41.13-2.438-.123-2.4-1.44z" fill-rule="evenodd"></path>
	<path d="m36.24,23.76c.615.024.385.895.72,1.2 .895.255.38-.9 1.2-.72 .168,1.208-.498,1.582-1.68,1.44-.281-.469-.789-1.343-.24-1.92z" fill-rule="evenodd"></path>
	<path d="m111.12,24.24v1.44c-.435.446-1.212.548-1.92.72-.135-.346-.375-.585-.72-.72-.229-1.502 1.458-2.121 2.64-1.44z" fill-rule="evenodd"></path>
	<path d="m114.72,24.48h.96c-.146.734-.51,1.25-.72,1.92-.843-.131-.385-1.392-.24-1.92z" fill-rule="evenodd"></path>
	<path d="m33.12,25.68h1.68c.032,1.231-.594,1.806-1.68,1.92-.106-.214-.211-.429-.48-.48-.116-.756.736-.543.48-1.44z" fill-rule="evenodd"></path>
	<path d="m38.88,26.88c.041.743-.844,1.08-1.2.72-.017-.719.706-1.218 1.2-.72z" fill-rule="evenodd"></path>
	<path d="m107.28,27.6c.344,1.624-.862,1.698-1.92,1.92-.135-.346-.375-.585-.721-.72-.012-1.87 1.312-1.746 2.641-1.2z" fill-rule="evenodd"></path>
	<path d="m117.36,28.56c-.587.924-2.748-.134-4.32.24 .503-1.182 3.634-1.313 4.32-.24z" fill-rule="evenodd"></path>
	<path d="m34.32,28.08c.382.882-1.826,1.122-1.68.24 .564-.076.901-.379 1.68-.24z" fill-rule="evenodd"></path>
	<path d="m29.76,28.56c.388-.068.414.227.72.24-.121,6.281 2.687,9.634 5.76,12.72-.08.879.266,1.333.48,1.92 2.283-1.136 4.004-3.665 6.72-4.56 1.106-.365 2.692-.479 4.08-.24-.94,1.574-2.432.688-3.84.96-3.037.586-4.419,2.986-6.48,4.8 .11,1.97.723,3.437 1.2,5.04-2.717-.003-1.507-3.933-2.4-5.76-3.107-4.323-7.219-7.456-6.24-15.12z" fill-rule="evenodd"></path>
	<path d="m111.6,29.76c.751.049 1.763-.162 2.16.24-.244,1.067-1.656,2.318-2.64,1.2-.116-.756.736-.543.48-1.44z" fill-rule="evenodd"></path>
	<path d="m103.92,30c.35.95-.195,2.327-1.68,2.16-1.114-.979-.227-2.756 1.68-2.16z" fill-rule="evenodd"></path>
	<path d="m106.8,30.96c-.067,1.292-.809,1.911-1.92,2.16-1.297-1.194.332-3.21 1.92-2.16z" fill-rule="evenodd"></path>
	<path d="m62.88,31.44c.345.894-.157,2.187-1.44,2.16-1.01-.841-.391-2.73 1.44-2.16z" fill-rule="evenodd"></path>
	<path d="m74.88,34.56c-.348,1.69-.747,1.343-.24,3.12-.805.538-1.905.601-2.4-.24-.104-.904.507-1.093.96-1.44-1.486-1.077.713-2.816 1.68-1.44z" fill-rule="evenodd"></path>
	<path d="m79.44,35.04c.47.33.129,1.471.48,1.92-1.034.23-.813-1.517-.48-1.92z" fill-rule="evenodd"></path>
	<path d="m28.8,35.28c1.298.033.232.937.48,1.92-1.298-.033-.233-.937-.48-1.92z" fill-rule="evenodd"></path>
	<path d="m67.68,36.24c.037.597-.377.743-.48,1.2-3.464.376-.472-4.001.48-1.2z" fill-rule="evenodd"></path>
	<path d="m39.6,37.2c-.493.464-1.729.318-1.68-.48 .196-1.206 2.091-1.285 1.68.48z" fill-rule="evenodd"></path>
	<path d="m45.12,36c.697.334-.068,1.185-.24,1.44-.965-.254-.252-1.258.24-1.44z" fill-rule="evenodd"></path>
	<path d="m103.92,37.68c-.959.168-3.111-.358-3.84-1.2 .912-.122 3.745-.277 3.84,1.2z" fill-rule="evenodd"></path>
	<path d="m110.4,36.72c.752.166.312.64.239,1.2 .892-.117.65-1.364 1.681-.72-.139,1.221-1.028,1.691-2.4,1.68-.106-.213-.211-.429-.479-.48-.251-1.129.552-1.207.959-1.68z" fill-rule="evenodd"></path>
	<path d="m42,38.16c-.009.791-.683.917-1.44.96-1.03-1.172 1.091-2.462 1.44-.96z" fill-rule="evenodd"></path>
	<path d="m97.68,40.32c.161.222 1.396-.211 1.681.48 .106,1.066-.135,1.786-1.2,1.68-.411-.309-.651-.789-.72-1.44-.546.415-1.341.579-2.4.48-.331-.31-.237-1.042-.24-1.68 1.067-.263 1.75.58 2.4,0 .501-.858.484-2.235 1.92-2.16 .125.355.355.604.479.96-.074,1.127-1.15,1.25-1.92,1.68z" fill-rule="evenodd"></path>
	<path d="m81.36,39.12c-.59,1.17-1.865,1.656-2.88,2.4-.392-1.221 1.788-4.788 2.88-2.4z" fill-rule="evenodd"></path>
	<path d="m37.44,38.64c.876-.156 1.278.162 1.68.48-.246.794-.665,1.415-1.68,1.44-.106-.214-.21-.429-.48-.48-.116-.756.737-.543.48-1.44z" fill-rule="evenodd"></path>
	<path d="m31.44,38.88c-.039.279.053.427.24.48-.045.675-.417,1.022-1.2.96-.202-.278-.316-.643-.24-1.2 .578.098.522-.438 1.2-.24z" fill-rule="evenodd"></path>
	<path d="m109.68,39.6c.114,1.313-.727,1.673-1.68,1.92-1.288-1.202.404-3.283 1.68-1.92z" fill-rule="evenodd"></path>
	<path d="m104.64,39.36c.342.738.108,1.08-.239,1.68-1.989.391-1.736-2.26.239-1.68z" fill-rule="evenodd"></path>
	<path d="m112.56,39.6c-.057,1.063-.173,2.067-1.199,2.16-1.818-.25-.882-2.989 1.199-2.16z" fill-rule="evenodd"></path>
	<path d="m106.56,40.32c.388-.067.414.227.721.24-.321.639-.077,1.844-.721,2.16-1.325-.236-.29-1.728 0-2.4z" fill-rule="evenodd"></path>
	<path d="m51.84,41.52c.341.737.108,1.079-.24,1.68-.811.091-1.024-.416-1.44-.72 .174-.706.748-1.012 1.68-.96z" fill-rule="evenodd"></path>
	<path d="m103.92,42.72c-1.003-.054-1.134.39-1.92,0v-.96c.91-.194 2.159-.546 1.92.96z" fill-rule="evenodd"></path>
	<path d="m32.64,41.76c.768.032 1.056.544.96,1.44-1.244.643-1.847-.714-.96-1.44z" fill-rule="evenodd"></path>
	<path d="m43.92,41.76c.431-.03.506.294.96.24-.501.754.218,1.339-.24,1.92-1.03-.064-1.029-1.424-.72-2.16z" fill-rule="evenodd"></path>
	<path d="m58.56,43.2c-.542,1.403-1.894.402-2.88.48-2.282.179-4.658.589-6.72,1.2 1.934-2.193 6.232-1.563 9.6-1.68z" fill-rule="evenodd"></path>
	<path d="m32.64,43.92c.192.833-.357.923-.24,1.68-.965-.165-.907-1.754.24-1.68z" fill-rule="evenodd"></path>
	<path d="m45.84,44.16c.276.284.272.848.24,1.44-.739.168-.461.168-1.2,0v-1.2c.431.031.506-.294.96-.24z" fill-rule="evenodd"></path>
	<path d="m44.16,44.88c-.467.893-1.054,1.666-1.92,2.16-.266-.454-.307-1.134-.48-1.68 .731-.647 1.405-1.223 2.4-.48z" fill-rule="evenodd"></path>
	<path d="m90.96,44.88c-.296.344-.825.455-1.44.48-.127-.193-.25-.39-.239-.72 .513-.518 1.34-.123 1.679.24z" fill-rule="evenodd"></path>
	<path d="m87.12,44.88c-.355,1.245-2.394.807-3.84.96 .159-1.441 2.894-.306 3.84-.96z" fill-rule="evenodd"></path>
	<path d="m92.88,44.88c3.188.422 6.002.571 8.64,1.92-1.206,1.406-3.472-.716-4.56-.96-1.322.107-3.481.297-4.08-.96z" fill-rule="evenodd"></path>
	<path d="m72.48,46.08c-1.035,1.608-6.053,1.289-8.64,1.2 .787-1.53 6.586-1.005 8.64-1.2z" fill-rule="evenodd"></path>
	<path d="m85.68,46.32c1.265-.008-.371,1.492.721,1.44 .944.385.083-1.036.72-.96 .807-.246.373.747.479,1.2-2.091.069-1.466,2.854-3.84,2.64-.417-.446-.31-1.72.24-1.92 .98-.073-.04.332.24.96h.72c.577-1.002-.606-2.465.72-3.36z" fill-rule="evenodd"></path>
	<path d="m95.04,47.52c.179.739-.659.461-.48,1.2-.875.156-1.278-.162-1.68-.48-.025-1.535 1.622-2.275 2.16-.72z" fill-rule="evenodd"></path>
	<path d="m106.56,47.28c1.613.149 3.374-.284 3.601,1.68-.929.208-.854-.586-1.44-.72-.965-.076-2.469.388-2.161-.96z" fill-rule="evenodd"></path>
	<path d="m49.44,48v1.44c-.34-.021-.68-.04-.72.24-.533-.17-.797-1.126-.48-1.44 .279-.201.643-.317 1.2-.24z" fill-rule="evenodd"></path>
	<path d="m88.08,48.72c.064.945-.093,1.667-.72,1.92-1.569-.042-1.073-2.536.72-1.92z" fill-rule="evenodd"></path>
	<path d="m102,49.2c-.326,2.154-2.456,2.504-3.6,3.84-.816-.183-1.399-1.619-.48-2.16 .75-.11.768.513.72,1.2 1.22-.792.797-4.195 3.36-2.88z" fill-rule="evenodd"></path>
	<path d="m94.32,49.2h1.68c-.198.678.338.622.24,1.2-.82.574-1.463.92-2.4.24-.116-.756.736-.543.48-1.44z" fill-rule="evenodd"></path>
	<path d="m111.12,50.88c1.066-.277 1.066,2.437 0,2.16 .253-1.003-.506-1.626 0-2.16z" fill-rule="evenodd"></path>
	<path d="m102,51.84c-.003.638.091,1.371-.24,1.68-1.131.091-2.061-.02-1.92-1.2 .596-.284 1.413-.347 2.16-.48z" fill-rule="evenodd"></path>
	<path d="m87.84,53.76c-.58.46-1.929.152-2.88.24v-.96c.777-.414 2.814-.343 2.88.72z" fill-rule="evenodd"></path>
	<path d="m41.76,53.04c1.25-.13 1.22,1.021 1.2,2.16-.817-.242-1.85-1.213-1.2-2.16z" fill-rule="evenodd"></path>
	<path d="m75.36,54.48c-1.859-.94-3.304.583-4.8-.72 .769-1.288 4.828-1.025 4.8.72z" fill-rule="evenodd"></path>
	<path d="m92.16,55.2c-1.33.199-2.547-.271-3.12-1.44 1.301-.657 2.963.177 3.12,1.44z" fill-rule="evenodd"></path>
	<path d="m108.72,54.72c-.164.716-.291,1.469-.96,1.68-2.27-.298-.672-3.348.96-1.68z" fill-rule="evenodd"></path>
	<path d="m71.28,56.16c.119,1.319-.136,2.263-1.44,2.16-.441.999.122,3.001-1.68,2.64-.276-.284-.272-.848-.24-1.44-.276-1.026.775-.364 1.2-1.2 .569-1.12.16-2.984 2.16-2.16z" fill-rule="evenodd"></path>
	<path d="m41.28,56.88h.72c.35,1.399-.247,3.043-.48,4.56-2.644.849-2.212,3.358-2.64,6.24-.735.211-2.585,1.815-2.88.24 .484-.875 2.216-.503 2.4-1.68-.195-1.732-.375-3.174.24-4.56 2.602.017 2.537-3 2.64-4.8z" fill-rule="evenodd"></path>
	<path d="m64.56,58.32c-.235.965-.441,1.959-1.68,1.92-.412-.388-.596-1.004-.48-1.92 .389-.361 1.771-.361 2.16,0z" fill-rule="evenodd"></path>
	<path d="m72.24,58.56c.069,1.03-.334,1.586-.72,2.16-.716-.164-.805-.956-.72-1.92 .283-.277.848-.272 1.44-.24z" fill-rule="evenodd"></path>
	<path d="m44.4,58.8c1.048-.328.511.93 1.44.72 .206.766-.377.742-.48,1.2 .139.792.906.344 1.44.24 .022.655-.399.483 0,.96h.96c.521.041.109-.851.24-1.2 1.549,2.087-2.188,2.599-3.36,1.2 .14-1.26-.423-1.817-.24-3.12z" fill-rule="evenodd"></path>
	<path d="m84.96,59.04c.174.733-.245.875-.24,1.44 .104.537 1.183.097 1.681.24 .317,2.841-2.55,1.015-3.36,2.64-.663.103-.226-.895-.72-.96 .013-.867 1.263-.497 1.68-.96 .04-.82-.845.055-1.2-.72-.502-1.701 1.018-2.39 2.159-1.68z" fill-rule="evenodd"></path>
	<path d="m106.32,60c1.299-.24 2.688.374 2.16,1.2-.736-.384-2.096-.143-2.16-1.2z" fill-rule="evenodd"></path>
	<path d="m63.12,60.96c.185,1.465-.645,1.916-1.68,2.16-1.135-1.302.42-3.45 1.68-2.16z" fill-rule="evenodd"></path>
	<path d="m65.76,60.48c.134,1.334-.229,2.171-1.44,2.16-.106-.214-.21-.429-.48-.48 .14-1.06.512-1.889 1.92-1.68z" fill-rule="evenodd"></path>
	<path d="m51.84,61.92c-.293,1.546-1.381,2.299-1.2,4.32-.72,1.388-2.151,4.888-2.88,6.96-.638,1.813-.785,4.725-3.12,4.32 2.843-2.917 3.486-8.033 5.28-12 .105-.825-.095-1.345-.24-1.92 .862-.418.709-1.851 2.16-1.68z" fill-rule="evenodd"></path>
	<path d="m35.28,63.36c.946.436-.33.934.24,1.92-1.148.349-.597-1.003-.72-1.68 .279.039.427-.053.48-.24z" fill-rule="evenodd"></path>
	<path d="m84.48,66.48c.065,1.026-.697,1.223-1.2,1.68-2.18-.197-.419-2.759 1.2-1.68z" fill-rule="evenodd"></path>
	<path d="m85.92,68.16c.14.779-.163,1.116-.24,1.68-1.612-.092-1.854,1.185-3.359,1.2-1.268-1.917 1.591-2.758 3.599-2.88z" fill-rule="evenodd"></path>
	<path d="m76.08,69.12c-.606.755-.399,1.075 0,1.92-1.377-.337-1.242.838-2.16.96-.675-.045-1.022-.417-.96-1.2 1.386-.214 1.46-1.74 3.12-1.68z" fill-rule="evenodd"></path>
	<path d="m51.12,71.52c-.029.889-.35.604-.96.48-.539.101-.007,1.273-.48,1.44-1.834-.712.163-3.566 1.44-1.92z" fill-rule="evenodd"></path>
	<path d="m75.84,71.76c-.21.425-.761.701-.24,1.2 .619-.021.252-1.027 1.2-.72-.021,1.019-.566,1.513-1.68,1.44-.318-.402-.636-.804-.48-1.68 .278-.201.643-.316 1.2-.24z" fill-rule="evenodd"></path>
	<path d="m83.04,73.44h1.68c.118,1.238-.33,1.91-1.439,1.92-.636-.528-.385-1.031-.241-1.92z" fill-rule="evenodd"></path>
	<path d="m36.24,74.88h.72c-.002.638.091,1.371-.24,1.68-.651-.099-.991-1.141-.48-1.68z" fill-rule="evenodd"></path>
	<path d="m86.16,75.6c.105.906-.474,1.126-.72,1.68-1.422-.166-1.56.582-3.12.72 .021-.341.039-.68-.24-.72 .757-1.044 2.711-2.033 4.08-1.68z" fill-rule="evenodd"></path>
	<path d="m115.44,78.96c.076.557-.039.921-.24,1.2-1,.12-1.152-.608-1.2-1.44 .586-.608.512.506 1.44.24z" fill-rule="evenodd"></path>
	<path d="m34.08,90.48c.388-.068.413.227.72.24v2.64c1.846,5.126 1.492,12.676 4.8,16.32 .24.264.339.697.96.48 .333,1.913 1.63,1.694 2.16,4.08 1.131,1.108 2.284,2.196 2.88,3.84-2.994-.847-3.833-3.848-6-5.52-.514-2.445-2.628-4.449-3.36-7.2-.61-2.293-.628-5.037-1.44-7.2-.207-.553-.347-1.289-1.2-1.44 .922-1.699-.015-4.53.48-6.24z" fill-rule="evenodd"></path>
	<path d="m37.92,90.72c1.608-.101 1.735,1.495 3.36.72 .142.861-.279,1.161-.48,1.68-1.441-.444-1.985-.459-3.12-.96-.005-.565.413-.707.24-1.44z" fill-rule="evenodd"></path>
	<path d="m129.12,93.12c.98.14 2.019.221 1.92,1.44-.793-.327-2.063-.177-1.92-1.44z" fill-rule="evenodd"></path>
	<path d="m76.56,95.52c.222,1.495-1.524,1.336-2.16.72 .287-.807 1.227-1.226 2.16-.72z" fill-rule="evenodd"></path>
	<path d="m25.44,96.48c.765.115 1.463.297 1.68.96 .008.728-.842.598-1.44.72-.363-.339-.758-1.166-.24-1.68z" fill-rule="evenodd"></path>
	<path d="m32.4,96.96h.72c1.241,1.74-1.961,1.74-.72,0z" fill-rule="evenodd"></path>
	<path d="m132.96,98.88c.018.897-.386,1.375-.96,1.68 .386.574.79,1.13.72,2.16-.877.625-2.021.519-2.16-.72-.017-.817.706-.894 1.2-1.2-.25-.709-1.215-.705-.96-1.92 .568-.484 1.67-.696 2.16,0z" fill-rule="evenodd"></path>
	<path d="m23.52,98.88c1.009-.049 2.006-.086 2.16.72-.058.982-1.001,1.079-1.92,1.2-.635-.529-.384-1.03-.24-1.92z" fill-rule="evenodd"></path>
	<path d="m130.32,101.52c-.502-.102-.636.165-.96.24-.694-.106-1.095-.506-1.2-1.2 .142-1.21 2.602-.558 2.16.96z" fill-rule="evenodd"></path>
	<path d="m120.24,100.32c.353.349.353,1.571 0,1.92-1.622.227-2.006-2.294 0-1.92z" fill-rule="evenodd"></path>
	<path d="m126.24,102.24c-1.083.202-1.198-.562-1.92-.72 .305-1.209 2.201-.685 1.92.72z" fill-rule="evenodd"></path>
	<path d="m83.76,101.28c-.205.766.378.743.48,1.2 .478-.481 1.143.076 1.68.24 .214,1.333-.752,1.488-1.92,1.44 .19-.83-.267-1.013-.48-1.44-.601.348-.942.581-1.68.24-.228-1.767.497-2.088 1.92-1.68z" fill-rule="evenodd"></path>
	<path d="m117.12,101.28c.304.416.812.629.72,1.44-.723.704-2.035.428-2.16-.72 .256-.464 1.105-.334 1.44-.72z" fill-rule="evenodd"></path>
	<path d="m118.56,103.2c.904-.104 1.094.507 1.44.96-.134.586-.563.877-.96,1.2-1.503-.29-1.001-1.159-.48-2.16z" fill-rule="evenodd"></path>
	<path d="m14.88,103.68c.678-.199.622.338 1.2.24-.616.514.201,1.341-.24,1.68h-.96c.039-.741-.567-1.357 0-1.92z" fill-rule="evenodd"></path>
	<path d="m131.52,104.16c1.75.834 4.558.98 5.28,2.16-2.283-.197-4.146-.814-5.28-2.16z" fill-rule="evenodd"></path>
	<path d="m45.12,105.12c-.102.501.165.635.24.96-.101.859-.765,1.155-1.68,1.2-.986-.816-.474-2.814 1.44-2.16z" fill-rule="evenodd"></path>
	<path d="m126,105.6c.452.428 1.111.649 1.44,1.2 .037.678-.679.602-.96.96-.704-.016-.892-.548-1.2-.96-.114-.754.646-.634.72-1.2z" fill-rule="evenodd"></path>
	<path d="m123.84,107.04c-.308.947.699.581.72,1.2 .092.892-.972.627-.72,1.68-.984-.215-1.666-.734-2.399-1.2 .066-.557.641-.552.96-.24 .762-.197.334-1.585 1.439-1.44z" fill-rule="evenodd"></path>
	<path d="m118.32,108.72c.292,1.424-1.651,1.463-2.16.72-.503-1.654 1.911-1.883 2.16-.72z" fill-rule="evenodd"></path>
	<path d="m114.96,108.96c.414,1.473-.965,2.098-1.92,1.44-.551-.849.461-1.839 1.92-1.44z" fill-rule="evenodd"></path>
	<path d="m86.16,110.16v1.68c-.563.237-1.18.421-1.92.48-1.163-1.068-.044-2.758 1.92-2.16z" fill-rule="evenodd"></path>
	<path d="m69.6,110.64c.023,1.543-1.917,1.123-1.44,3.12-.697.184-.623,1.138-1.68.96-.006-.233-.293-.187-.48-.24-.205-1.325.475-1.765 1.44-1.92-.021-.896-.269-.684 0-1.44 .496-.367 1.407-1.114 2.16-.48z" fill-rule="evenodd"></path>
	<path d="m58.56,111.6c.731-.012 1.222.218 1.44.72 .099,1.464-1.965,2.028-1.2,3.36-.408.686-1.433,1.02-2.16.72 .039-.279-.053-.427-.24-.48-.246-1.525 1.256-1.304 1.92-1.92 .065-.815-.186-1.946.24-2.4z" fill-rule="evenodd"></path>
	<path d="m116.4,111.84c.173.733-.246.875-.24,1.44-.914.114-1.498-.102-1.68-.72-.126-.989 1.298-1.222 1.92-.72z" fill-rule="evenodd"></path>
	<path d="m102.48,112.32c-.061,1.06-.646,1.595-1.44,1.92-1.992-.597-.365-3.188 1.44-1.92z" fill-rule="evenodd"></path>
	<path d="m18.48,112.32c1.062-.262 1.193.407 1.92.48-.296.744-.675,1.405-1.92,1.2-.342-.32-.342-1.36 0-1.68z" fill-rule="evenodd"></path>
	<path d="m110.64,113.28c-.363,1.148-2.295,1.503-2.88.48-.049-1.835 2.242-1.587 2.88-.48z" fill-rule="evenodd"></path>
	<path d="m85.68,113.52c.247.553.826.774.721,1.68-.563.236-1.18.421-1.92.48-.872-.672-.63-2.775 1.199-2.16z" fill-rule="evenodd"></path>
	<path d="m91.68,114c.371.349.212,1.229.24,1.92-.519.201-.818.622-1.68.48 .192-.833-.357-.922-.24-1.68 .554-.247.773-.826 1.68-.72z" fill-rule="evenodd"></path>
	<path d="m96,115.2c-.425.438-1.386,1.134-2.16.48-.29-1.847 2.004-2.2 2.16-.48z" fill-rule="evenodd"></path>
	<path d="m100.32,114.48c.137,1.497-.539,2.181-1.92,2.16-.943-1.48.863-3.32 1.92-2.16z" fill-rule="evenodd"></path>
	<path d="m123.6,115.68c-.631.249-1.473.287-2.399.24 .119.343-.547,1.485-.24,1.92 1.146-.053 1.287-1.113 2.88-.72 .525.961-.165,1.646.48,2.399-1.869-.371-3.508-.972-4.801-1.919-.982.023-1.887-.033-1.92-.96 .388-.068.414.227.721.24 .659-1.661 3.118-1.521 4.08-2.88 1.065-.106 1.305.614 1.199,1.68z" fill-rule="evenodd"></path>
	<path d="m102,114.72c1.125-.245 1.365.395 1.92.72 .021,1.192-1.749,1.591-2.4.72 .138-.502.595-.685.48-1.44z" fill-rule="evenodd"></path>
	<path d="m107.04,114.96h1.68v1.68c-.733-.174-.706.414-1.439.24-.81-.797-.502-.752-.241-1.92z" fill-rule="evenodd"></path>
	<path d="m110.4,114.96h1.68c.34,1.399-1.039,2.024-1.92,1.44-.608-.586.506-.511.24-1.44z" fill-rule="evenodd"></path>
	<path d="m128.64,116.16c1.09.19 2.491.069 2.16,1.68-1.083.357-2.813.067-2.399,1.92-1.083.123-1.902-.018-2.16-.72 .344-1.415 2.299-1.22 2.399-2.88z" fill-rule="evenodd"></path>
	<path d="m109.2,117.6c-2.635.753-9.837,1.358-12.96,0-1.259.002-2.763.622-3.36-.48 3.098-.735 6.001.697 8.88.48 .917-.069 1.812-.661 2.641-.72 .509-.037.593.419 1.199.48 1.035.104 2.232-.211 3.6.24z" fill-rule="evenodd"></path>
	<path d="m36,117.6c1.036.335.884.91 1.92.24 .486,3.008 2.406-.059 4.32.24-1.403,1.573-3.791,1.772-5.76,2.64-.875.386-1.711.986-2.64,1.44-1.384.677-3.032.931-3.84,2.16-.714.085-1.218.382-1.68.72-1.656,1.863-3.285,3.755-6,4.56 .679-2.041 3.509-1.931 4.32-3.84-1.656.289-2.289-1.431-4.32-1.439v-1.2c2.507-.348 2.682,1.639 4.56,1.92 2.845-1.955 6.292-3.308 9.36-5.04-.249-.615-.865-1.655-.24-2.401z" fill-rule="evenodd"></path>
	<path d="m31.44,118.08c.115.755-.342.938-.48,1.439-.315-.244-.885-.234-1.2-.479v-.96c.32-.343 1.36-.342 1.68,0z" fill-rule="evenodd"></path>
	<path d="m46.08,118.08c.645.396 2.224-.144 1.92,1.2-1.037-.003-1.91-.17-1.92-1.2z" fill-rule="evenodd"></path>
	<path d="m90.72,119.28c-.024.935-1.042.878-1.92.96-.103-.458-.686-.435-.479-1.2 .43-.311 2.318-.541 2.399.24z" fill-rule="evenodd"></path>
	<path d="m48.72,119.04c.349.131 1.24-.28 1.2.24 .27.824-1.746.71-1.2-.24z" fill-rule="evenodd"></path>
	<path d="m33.12,119.76c.173.733-.246.875-.24,1.44-1.339.291-1.617-.622-1.68-.96 .053-.747 1.195-.406 1.92-.48z" fill-rule="evenodd"></path>
	<path d="m30.72,121.44c-.216.424-.58.7-.72,1.199-.32-.399-1.36-.08-1.68-.479-.028-1.84 1.518-1.455 2.4-.72z" fill-rule="evenodd"></path>
	<path d="m45.36,121.68h.72c-1.858,10.548 2.29,21.302 6.48,28.561-1.376.457-1.853-1.258-2.4-2.16-1.514-2.494-2.513-5.274-3.6-8.64-1.491-4.618-3.206-12.078-1.2-17.761z" fill-rule="evenodd"></path>
	<path d="m48.24,122.88c.941-.087.494,1.914-.24,1.68-.204-.201-.658-1.875.24-1.68z" fill-rule="evenodd"></path>
	<path d="m24.24,126.24c-.023,1.097-1.237,1.003-2.16,1.2-1.701-1.681 1.409-3.037 2.16-1.2z" fill-rule="evenodd"></path>
	<path d="m35.28,128.4c.173.733-.245.874-.24,1.439h-1.2c-.276-.283-.271-.849-.24-1.439 .32-.342 1.36-.342 1.68,0z" fill-rule="evenodd"></path>
	<path d="m36.96,129.12c.557-.077.921.038 1.2.24v1.199h-1.44c-.032-.59-.036-1.156.24-1.439z" fill-rule="evenodd"></path>
	<path d="m43.68,129.36c.127.783-1.352,1.187-1.68.72 .019-.781 1.088-.513 1.68-.72z" fill-rule="evenodd"></path>
	<path d="m34.08,132.24c-.592.031-1.156.036-1.44-.24-.281-2.553 3.059-1.554 1.44.24z" fill-rule="evenodd"></path>
	<path d="m119.04,131.04c.064,1.136.929,1.471 1.44,2.16 .04.601-.369.751-.721.96 .22.421.446.834 1.2.72 .171.37-3.309.501-3.6-.24 .373-.586 1.314-.604 1.199-1.68-.706-.812-2.393,1.31-1.439,1.44-.723,1.009-2.205-.164-3.36.479 .607-.673 1.286-1.274 1.681-2.16 2,.242 1.605-1.914 3.6-1.679z" fill-rule="evenodd"></path>
	<path d="m70.8,132.72c-.766.206-.742-.378-1.2-.479 .272-1.328 2.142-.948 1.2.479z" fill-rule="evenodd"></path>
	<path d="m126.48,132.24c-.137,1.28.557,2.102 0,3.12 .057.663 1.354.086 1.199.96-1.915.438-4.277-.655-6.239-.96 1.85-.871 2.531-2.909 5.04-3.12z" fill-rule="evenodd"></path>
	<path d="m29.28,132.96h1.68c.414,1.473-.965,2.098-1.92,1.44-.174-.734.414-.706.24-1.44z" fill-rule="evenodd"></path>
	<path d="m28.08,133.92c.481,1.473-1.144,1.741-1.92,1.2v-.96c.349-.371 1.229-.212 1.92-.24z" fill-rule="evenodd"></path>
	<path d="m73.92,138.48c.136,1.176-.375,1.705-.96,2.159-2.231-.483-1.24-3.921.96-2.159z" fill-rule="evenodd"></path>
	<path d="m66.96,139.2c-.109,1.789 1.028,2.332.96,4.08-3.822-.656-6.452.672-10.8.96 .668-.933 1.113-2.087 1.92-2.88 1.219.061 1.393,1.167 2.16,1.68 .703.062.737-.543 1.44-.48-.213-.427-.67-.609-.48-1.439 .553-.247.774-.826 1.68-.72-.203-2.408 1.779-1.88 3.12-1.201zm-2.64,3.12h.96v-1.681h-.96c.199.862-.541,1.162 0,1.681z" fill-rule="evenodd"></path>
	<path d="m31.2,139.68c.858.182 1.524.556 1.68,1.44-.224.176-.363.437-.48.72-1.036.156-1.345-.414-1.92-.72 .347-.373.505-.935.72-1.44z" fill-rule="evenodd"></path>
	<path d="m58.56,140.4c-.206.913-.857,1.383-1.92,1.439 .531,1.342-.535,1.853-2.16,1.68-.209-1.248.29-1.789 1.2-1.92 .174-.733-.414-.705-.24-1.439 .682-.655 2.743-.73 3.12.24z" fill-rule="evenodd"></path>
	<path d="m32.16,143.52c.222,1.086-1.727.794-2.16.48v-.96c.71-.59 1.826-.049 2.16.48z" fill-rule="evenodd"></path>
	<path d="m91.44,145.68c.138.502.595.686.479,1.44-.355.125-.604.355-.96.479-.754.114-.634-.646-1.2-.72 .161-.799.618-1.302 1.681-1.199z" fill-rule="evenodd"></path>
	<path d="m40.8,148.32c-.792-.409-1.728-.673-1.68-1.92 1.203-.842 2.333.859 1.68,1.92z" fill-rule="evenodd"></path>
	<path d="m58.56,146.64c-.685,1.27.766,2.3-.24,3.12-.508-.531-.932-1.148-1.44-1.68-.023-1.062.431-1.648 1.68-1.44z" fill-rule="evenodd"></path>
	<path d="m66.96,147.12c.054.854-.162,1.438-.72,1.68-.873-.008-1.055-.705-.96-1.68 .32-.343 1.36-.343 1.68,0z" fill-rule="evenodd"></path>
	<path d="m87.6,146.88c.557-.076.922.039 1.2.24-.264.917-.636.751.24,1.2-.199.986-1.411.664-1.92.239-.156-.874.161-1.278.48-1.679z" fill-rule="evenodd"></path>
	<path d="m73.92,147.36c.744.056.749.851.96,1.439-.859.458-1.524-.067-1.68-.96 .315-.084.378-.421.72-.479z" fill-rule="evenodd"></path>
	<path d="m112.32,148.8c-.825.105-1.346-.095-1.92-.24 .24-1.17 2.121-1.705 1.92.24z" fill-rule="evenodd"></path>
	<path d="m37.92,148.08h.72c.173.733-.246.875-.24,1.439-.908.207-.849-1.074-.48-1.439z" fill-rule="evenodd"></path>
	<path d="m97.2,148.32c.011.73-.507.933-.72,1.439-1.488-.276-.701-2.38.72-1.439z" fill-rule="evenodd"></path>
	<path d="m84,155.04c.388-.067.413.227.72.24-.069,2.065-.791,4.344 0,6.479 1.264-.144 2.062.178 3.12.24 .068-1.35 1.917-3.308 2.641-1.2-.319.588-.894-.264-.961.24-.067.388.228.413.24.72 2.611.903 5.595-.019 8.4.721-.067-.506-.695-1.525.24-2.4 1.337-.298 1.482.597 1.92,1.2 .181.9-.917.522-.96,1.2h1.68c.438-.557-.668-1.022 0-1.921 .279.039.427-.053.479-.239 .948.012 1.429.491 1.44,1.439 1.506-.059 2.533-.533 3.84-.24-.447,1.664-1.896,1.132-3.359,1.2-1.294.061-2.588.866-4.08.96-2.891.183-6.687-.704-9.841-.72-2.025-.01-4.544-.077-6.72-.72 .762-2.528.281-4.828 1.201-7.199z" fill-rule="evenodd"></path>
	<path d="m105.36,155.04h.72c1.084,2.615 1.942,5.411 3.6,7.68 1.663,2.276 3.177,3.828 4.561,6.721 1.478,3.09 2.648,5.704 3.6,9.84 .419,1.821 1.354,3.259 2.16,5.04 .444.981 1.479,2.126 1.2,4.08 .96,1.558 2.865,4.332 1.92,6.239 2.102,3.15 3.579,7.251 3.36,11.521-1.217-.115-1.946-3.104-.961-3.84-1.253-2.027-2.117-4.443-2.64-7.2-.293-.731-.916.351-1.2-.24 1.016-2.621-.144-4.873-1.92-6 .729-2.874-1.521-4.671-2.16-6.96-.578-.099-.521.438-1.199.24 .739-3.978-1.288-6.947-2.16-10.08-8.902,2.729-20.843,1.459-30.48.96-.156-.957.913-.688 1.681-.72 .866-.414 1.044-1.516 2.399-1.44 .675.045 1.022.418.96,1.2 .731-1.166 1.413-.611 2.4-.72v1.199c2.102.262 3.417-.262 4.319-1.199 .753.166.313.64.24,1.199 1.335-.027.352-1.284.48-2.159 .526-.273.98-.62 1.92-.48 .116.546.476,1.227 0,1.68 1.388-.107 1.077,1.483 2.399,1.44 .888-.312 1.119-2.29 2.641-1.2 .467-.482-1.328-.74-.72-2.16 .448-.191.879-.4 1.439-.479 .646.624-.293.724-.24,1.439 1.412-.714 2.9.568 3.601,1.92 2.197-.442 4.077-1.202 6.239-1.68-.641-1.885-1.234-3.305-2.399-4.8-.667-.856-1.797-1.525-2.4-2.4-1.673-2.428-2.488-5.27-3.36-8.641z" fill-rule="evenodd"></path>
	<path d="m92.88,158.88c-1.033-.313-.943.496-1.2.96-.637-.002-1.37.091-1.68-.24 .13-1.157 2.515-2.649 2.88-.72z" fill-rule="evenodd"></path>
	<path d="m93.84,160.08c.331.31.237,1.042.24,1.68-1.288-.778-1.151-.043-2.64-.479-.141-1.342 1.196-1.206 2.4-1.201z" fill-rule="evenodd"></path>
	<path d="m77.04,162.72c.557.083 1.125.155.96.96h-1.2c-.102-.501.164-.635.24-.96z" fill-rule="evenodd"></path>
	<path d="m36,163.44c.027.906-.47,1.29-1.2,1.439-.053-.932.099-1.66 1.2-1.439z" fill-rule="evenodd"></path>
	<path d="m118.56,167.76c-.519.201-.818.622-1.68.48-1.717-1.379 1.757-2.599 1.68-.48z" fill-rule="evenodd"></path>
	<path d="m63.84,170.16c-.156-.876.162-1.278.48-1.68 .744-.024 1.332.108 1.68.479v.48c.004.965-1.253.668-2.16.721z" fill-rule="evenodd"></path>
	<path d="m90.24,170.4c-.587.466-2.071.294-2.4-.24 .136-1.568 2.466-1.475 2.4.24z" fill-rule="evenodd"></path>
	<path d="m109.92,169.44c1.037.323.049,1.265-.72,1.199-.254-.893.505-.774.72-1.199z" fill-rule="evenodd"></path>
	<path d="m31.68,169.68c-.005.565.413.707.24,1.44-.592.031-1.156.036-1.44-.24-.146-.945.537-1.063 1.2-1.2z" fill-rule="evenodd"></path>
	<path d="m73.68,170.16c.007.933-1.084,1.62-1.92.96-.112-1.244 1.267-1.847 1.92-.96z" fill-rule="evenodd"></path>
	<path d="m39.6,177.36c.206-.509-.072-1.482 1.2-1.44-.082.481.049.751.48.72 .114.754-.646.635-.72,1.2 .838.522 2.775-.055 2.64,1.44-5.839-.881-10.065-3.375-14.4-5.761-.288-1.325 2.211-2.34 1.44-.72 1.936.864 2.898,2.701 5.52,2.88 1.224.617 2.089,1.592 3.84,1.681z" fill-rule="evenodd"></path>
	<path d="m33.36,172.32c-.137.663-.254,1.346-1.2,1.199-.055-.854.345-1.253 1.2-1.199z" fill-rule="evenodd"></path>
	<path d="m40.8,173.52v1.2c-.637-.002-1.371.091-1.68-.239 .041-1.008.848-1.391 1.68-.961z" fill-rule="evenodd"></path>
	<path d="m130.8,174.72c-.299,1.055-1.928.684-1.2,2.16-.422.651-1.978.65-2.399,0 .18-.779.868-1.052 1.439-1.439-.949-1.375 1.928-2.518 2.16-.721z" fill-rule="evenodd"></path>
	<path d="m39.36,175.2c-.142.766.451.742 0,1.2-.734.174-.706-.414-1.44-.24-.23-1.238.72-1.294 1.44-.96z" fill-rule="evenodd"></path>
	<path d="m53.76,178.56h-1.2c-1.352-2.28 2.538-2.363 1.2,0z" fill-rule="evenodd"></path>
	<path d="m60.96,177.6c.73.15 1.227.533 1.2,1.44-1.61.149-1.526,1.994-3.36,1.92-.683-1.283.829-1.693 1.68-2.16-.205-.765.209-.911.48-1.2z" fill-rule="evenodd"></path>
	<path d="m51.6,177.84c-.421,1.145.139,1.065.24,2.16 5.361.56 9.51,2.33 15.12,2.64 .183.697 1.138.623.96,1.681-1.364.164-1.434-.966-2.4-1.2-1.714.394-4.207-.187-5.52-.96-4.178-.142-7.842-.798-10.8-2.16 .512-1.009 1.103-1.939 2.4-2.161z" fill-rule="evenodd"></path>
	<path d="m63.12,180.96c-.398.401-1.409.191-2.16.24-.126-1.443 2.231-2.045 2.16-.24z" fill-rule="evenodd"></path>
	<path d="m87.36,180.24c.947,1.321-.883,2.319-1.681,1.2 .161-.799.618-1.303 1.681-1.2z" fill-rule="evenodd"></path>
	<path d="m72,184.8c-.773.053-1.016-.425-1.92-.24v-.72c.583-.407 2.147-.193 1.92.96z" fill-rule="evenodd"></path>
	<path d="m40.32,184.32v1.92c-.757-.118-.847.433-1.68.24-.24-1.558.443-2.796 1.68-2.16z" fill-rule="evenodd"></path>
	<path d="m74.64,184.08c.536.104.855.424.96.96-.578-.099-.522.438-1.2.24-.077-.556.038-.922.24-1.2z" fill-rule="evenodd"></path>
	<path d="m51.36,188.16c-1.827-.18-2.424,1.991-4.08,1.2 .256-1.665 2.259-1.582 2.88-2.88 .8.161 1.303.617 1.2,1.68z" fill-rule="evenodd"></path>
	<path d="m127.2,186.96h.479c.633-.072.788.332.721.96 .499-.136.775-.686 1.199-.24 .14,1.18-1.272.807-1.439,1.681 .851-.573 2.099-.252 3.359-.24 2.097.02 2.444-1.096 4.08-2.16 .48,2.204-3.194,3.48-5.04,3.36-1.287,1.294-3.547,2.822-5.279,2.88 .35-1.65 2.462-1.538 3.6-2.4-.458-1.018-1.636.539-3.12,0 .001-1.199.646-1.755 1.92-1.68 .381-.32-.966-.941-.48-2.161z" fill-rule="evenodd"></path>
	<path d="m22.32,187.92c1.28-.186 1.369,1.084.96,1.92-.875.156-1.278-.161-1.68-.479 .134-.588.929-.512.72-1.441z" fill-rule="evenodd"></path>
	<path d="m59.52,188.16v1.2c-.638-.003-1.371.091-1.68-.24 .041-1.007.848-1.391 1.68-.96z" fill-rule="evenodd"></path>
	<path d="m20.88,189.6c.924.036.584,1.336 1.2,1.681 .578.098.521-.438 1.2-.24 .074.561.47.991 0,1.44-1.384.264-1.029-1.211-2.4-.961 .691,1.95 3.151,2.13 4.56,3.36 .683-.357.779-1.302 1.92-1.2-.269.756-.021.544 0,1.44-.307.333-1.133.146-1.44.479 .242.559.826.774 1.68.721 1.015.055.543-1.377 1.92-.96 .168,1.271.504,2.375 1.68,2.64 1.7-.22 1.858-1.981 3.6-2.16 .276.284.272.849.24,1.44-.349.45-1.571.028-1.92.479-.099.578.438.521.24,1.2 .409-.64 1.14-1.099 1.92-.72-.029,1.43-.233,1.627.24,2.64-2.885-.635-5.053-1.987-6.96-3.6-1.475.195-1.803-.758-3.12-.721-1.101-1.938-3.68-2.399-5.28-3.84 .386-1.228-.371-2.396.72-3.118z" fill-rule="evenodd"></path>
	<path d="m67.92,191.52c-.32.4-1.36.081-1.68.48-.453.373.344.936-.24,1.44-.638-.003-1.371.09-1.68-.24-.468-.959.982-1.212 1.44-1.92 .401-.619.22-1.976 1.68-1.681 .273.528.62.982.48,1.921z" fill-rule="evenodd"></path>
	<path d="m57.84,191.52c-.691-.028-1.571.132-1.92-.239-.377-2.325 2.882-1.321 1.92.239z" fill-rule="evenodd"></path>
	<path d="m60.72,190.8c.414,1.474-.965,2.098-1.92,1.44-.17-1.229.842-2.22 1.92-1.44z" fill-rule="evenodd"></path>
	<path d="m115.68,190.8c1.195-.314 1.021.739 1.92.72 .031.431-.293.507-.239.961-.556.484-1.842.244-2.16-.24-.117-.757.736-.545.479-1.441z" fill-rule="evenodd"></path>
	<path d="m88.8,191.76c.146.575.346,1.095.24,1.92-1.258-.058-1.048,1.353-1.68,1.92h-1.44c.045-.914.341-1.579 1.2-1.68-.177-1.217.595-1.484.96-2.16h.72z" fill-rule="evenodd"></path>
	<path d="m98.64,192c.234.245.475.485.721.72-.021,1.26-1.622.938-1.681,2.16 .605.743.779-.965 1.92-.479-.028.691.132,1.57-.239,1.92-1.778-.271-2.474-.152-4.08-.48-.007-1.206.833-1.567 1.68-1.92 .244-.956.558-1.843 1.679-1.921z" fill-rule="evenodd"></path>
	<path d="m107.76,192.48c-.039.278.054.427.24.479-.795,1.205-2.148,1.852-2.88,3.12-.655.175-.483-.477-.96-.48 .184-1.336 1.734-1.306 1.68-2.88 .469-.28 1.344-.787 1.92-.239z" fill-rule="evenodd"></path>
	<path d="m29.52,194.4h-1.2c-1.352-2.28 2.538-2.363 1.2,0z" fill-rule="evenodd"></path>
	<path d="m114,192.72c1.19-.07 1.75.49 1.68,1.681-.555.484-1.841.244-2.16-.24 .138-.503.595-.686.48-1.441z" fill-rule="evenodd"></path>
	<path d="m67.44,192.96c.744-.023 1.332.108 1.68.48 .16,1.04-1.114.646-1.92.72-.076-.556.039-.922.24-1.2z" fill-rule="evenodd"></path>
	<path d="m117.84,193.2c.353.349.353,1.57 0,1.92-.83.189-1.013-.267-1.439-.48-.128-1.087.352-1.567 1.439-1.44z" fill-rule="evenodd"></path>
	<path d="m138.48,194.64c-1.697,1.184-3.837,1.924-6,2.641 1.047-1.693 4.202-2.492 6-2.641z" fill-rule="evenodd"></path>
	<path d="m107.04,197.28c-.266-.454-.307-1.134-.48-1.681 1.769-2.672 3.763,1.73.48,1.681z" fill-rule="evenodd"></path>
	<path d="m90.24,194.88c.263,1.062-.407,1.193-.48,1.92 1.563.277 4.422-.741 4.561.96-2.13.618-4.961-.355-7.44-.479-1.489-.075-4.04,1.124-4.32-.96 1.93.311 4.231.249 6.48.239 .143-.284-.234-2.02 1.199-1.68z" fill-rule="evenodd"></path>
	<path d="m116.4,196.32c-.862.282-2.138.521-2.881.239 .29-.658 2.708-1.694 2.881-.239z" fill-rule="evenodd"></path>
	<path d="m105.12,196.8c-.499,1.243-2.46.97-3.84.72-.212-2.115 2.684-.755 3.84-.72z" fill-rule="evenodd"></path>
	<path d="m100.08,197.52c-.233.007-.187.294-.24.48-1.206-.28-2.176.528-2.88,0v-.96c1.557.244 2.618-1.186 3.12.48z" fill-rule="evenodd"></path>
	<path d="m45.36,198c.708-.035.571,1.821 1.2.48 .95.966-.773,1.295-1.2,1.68 .202.278.317.644.24,1.2-.389.36-1.771.36-2.16,0 .792-1.493 1.353-1.887 1.92-3.36z" fill-rule="evenodd"></path>
	<path d="m118.8,200.64c-.019-1.508 2.612-1.148 2.16.48-.593.472-2.097.319-2.16-.48z" fill-rule="evenodd"></path>
	<path d="m134.64,199.92c.825-.105 1.346.095 1.92.24v1.2c-.68.393-1.868.76-2.399,0-.117-.756.735-.544.479-1.44z" fill-rule="evenodd"></path>
	<path d="m54.24,200.64c-.275,1.664-1.818,3.005-3.6,2.4 .305-1.455 2.323-1.197 2.64-2.64 .502-.101.636.164.96.24z" fill-rule="evenodd"></path>
	<path d="m47.76,200.88v1.2c-.637-.003-1.371.091-1.68-.24 .041-1.007.848-1.391 1.68-.96z" fill-rule="evenodd"></path>
	<path d="m120.72,201.36c.638.002 1.371-.091 1.681.239 .292,1.506-1.408,2.151-2.16,1.2-.117-.755.736-.542.479-1.439z" fill-rule="evenodd"></path>
	<path d="m118.8,201.6c-.005.565.413.707.24,1.44-1.856,1.239-2.811-1.969-.24-1.44z" fill-rule="evenodd"></path>
	<path d="m60,201.84c.121.754-.565.98.24,1.2-.171.789-1.583.338-1.2,1.68-.889.145-1.392.396-1.92-.239 .327-.554.42-1.34 1.44-1.2 .446-.514.488-1.432 1.44-1.441z" fill-rule="evenodd"></path>
	<path d="m132.72,201.84c.589.611 1.334,1.066 1.681,1.92-.532.298-1.848-.281-2.16-.96-.176-.654.476-.484.479-.96z" fill-rule="evenodd"></path>
	<path d="m71.76,203.04c-.093,1.587-2.632.728-2.4,2.64-.691-.028-1.571.132-1.92-.239 .451-.749.729-1.671 1.92-1.681 .183-1.394 1.568-1.773 2.4-.72z" fill-rule="evenodd"></path>
	<path d="m106.56,202.32c1.253-.133 2.134.105 1.921,1.439-.681.393-1.869.761-2.4,0-.117-.755.735-.542.479-1.439z" fill-rule="evenodd"></path>
	<path d="m54.96,202.8c.032.592.036,1.156-.24,1.44-.946.146-1.063-.537-1.2-1.2 .734.174.706-.414 1.44-.24z" fill-rule="evenodd"></path>
	<path d="m64.8,203.28c.77-.067.873,1.051.48,1.439-.501.102-.635-.164-.96-.239-.179-.739.659-.461.48-1.2z" fill-rule="evenodd"></path>
	<path d="m48.96,203.52c1.432.412 4.458.497 4.56,1.44-.087.522-2.024.291-2.88,0-.796-.271-1.73-.766-1.68-1.44z" fill-rule="evenodd"></path>
	<path d="m96.24,203.52c1.231-.031 1.806.594 1.92,1.681-.587.466-2.071.294-2.4-.24-.115-.757.737-.544.48-1.441z" fill-rule="evenodd"></path>
	<path d="m129.84,205.2c-.907-.407-1.165-.215-1.92-.48-.275-2.12 3.189-1.027 1.92.48z" fill-rule="evenodd"></path>
	<path d="m88.32,204.72c-.15.73-.533,1.228-1.44,1.2-1.555-1.281.875-3.233 1.44-1.2z" fill-rule="evenodd"></path>
	<path d="m106.32,204.48c.064.944-.093,1.667-.721,1.92-1.956.136-1.293-2.668.721-1.92z" fill-rule="evenodd"></path>
	<path d="m108,204.48c.638.002 1.371-.091 1.68.239 .293,1.506-1.407,2.151-2.16,1.2-.116-.755.737-.542.48-1.439z" fill-rule="evenodd"></path>
	<path d="m58.32,206.16c-1.068-.052-2.183-.057-2.4-.96 .567-.269 2.644-.344 2.4.96z" fill-rule="evenodd"></path>
	<path d="m71.28,205.44c.75-.11.768.513.72,1.199-1.034.087-.927-.596-.72-1.199z" fill-rule="evenodd"></path>
	<path d="m95.76,205.44c.342.737.107,1.079-.24,1.68-.913.114-1.498-.102-1.68-.72-.017-.977.887-1.033 1.92-.96z" fill-rule="evenodd"></path>
	<path d="m100.32,205.68c.082,1.589-2.651,3.15-3.601,1.44h.96c.031-1.242 1.382-2.199 2.641-1.44z" fill-rule="evenodd"></path>
	<path d="m84.72,208.08c-.176-.225-.437-.363-.72-.48 .181-1.179.688-2.03 2.4-1.68 .455,1.057-.407,2.115-1.68,2.16z" fill-rule="evenodd"></path>
	<path d="m69.36,207.6c-.348,1.103-1.438.08-2.16,0-1.587-.175-3.816.182-5.04-.72-.088-.408.187-.453.48-.479 2.218.42 5.328-.048 6.72,1.199z" fill-rule="evenodd"></path>
	<path d="m88.8,206.88c-.084.796-.719,1.041-1.2,1.44-.597.037-.742-.377-1.199-.48 .135-1.077 1.83-1.727 2.399-.96z" fill-rule="evenodd"></path>
	<path d="m53.52,212.88c-.299.661-.756,1.164-1.68,1.2-1.491-.985 1.052-3.031 1.68-1.2z" fill-rule="evenodd"></path>
	<path d="m63.6,213.6c-.039.281-.438.203-.72.24-.779.021-.169,1.432-1.2,1.2-.804-1.412 1.274-1.881 1.92-1.44z" fill-rule="evenodd"></path>
	<path d="m50.4,214.08c.166.646-.496.464-.72.72 .074.326.601.199.96.24 .019.898-.941.818-1.68.96-1.071-.883.355-2.6 1.44-1.92z" fill-rule="evenodd"></path>
	<path d="m100.32,18c.406.553.604,1.316 1.68,1.2 .7-.796 1.394-2.69.96-3.84-.979-.073-.128.501-.24.96-1.343-.017-1.465-1.255-2.64-1.44-.753.308.522,1.143-.48,1.2-.83.19-1.013-.267-1.439-.48-.295-1.095.842-.758.96-1.44-.043-.677-1.141-.299-.96-1.2 .817-.382 1.346-1.054 1.68-1.92 .739.894.453,1.119 1.44.96 .306.946-.657.623-.96.96 1.096.584 1.81,1.55 3.12,1.92 .983-1.017.883-3.116 2.159-3.84-.349-.982-1.275.106-1.68-.72 .613-1.802 3.498-.405 4.561-.24-.999,2.683-2.447,4.539-3.12,7.92-1.234,6.193-2.898,11.994-6.24,16.32-.709.918-1.314,2.052-1.92,2.64-3.816,3.706-10.099,3.428-15.601,6.48-.101-.821.719-.721.96-1.2-.152-.487-1.121-.158-1.199-.72-.182-.902.628-.812.96-1.2-.074-2.322-1.148-5.4-.24-7.2-.07-.657-1.27.757-1.44,0 .529-1.585 2.792-.723 3.841-.96 4.501-1.019 5.392-5.819 7.68-9.12 .212-.893.091-1.861.479-2.64 .497-.996 1.663-1.163 2.16-1.92 .529-.806 1.024-2.367 1.2-3.6 .081-.566-.183-1.293 0-1.92 .386-1.324 1.871-2.51 1.92-4.08-1.404-.121-1.337,3.301-2.64,4.08 .326,4.167-1.937,5.744-3.601,7.92-.929,4.111-2.935,7.145-5.52,9.6-2.702.338-6.131-.051-7.44,1.68-.177.943-.417,1.823-.72,2.64-1.921-1.519-1.822-5.759-6.24-4.32-.726-.394-1.625-.615-2.16-1.2-8.219.139-9.838-6.322-13.68-10.56-.68-.041-1-.44-1.68-.48-.328-1.033-1.257-1.463-1.68-2.4v-1.44c-2.684-2.756-5.107-5.773-6.96-9.36-1.563,1.09.118,2.357.72,3.12 .74.937 1.77,2.005 2.4,2.88 1.521,2.111 2.243,4.725 3.6,6.72 1.214,1.786 3.423,2.419 4.8,4.08 1.892,2.283 2.971,5.182 5.28,6.96 .577.444 1.661,1.136 2.4,1.44 3.548,1.461 8.723.198 11.28,2.88 .722,2.163 1.334,5.283.48,7.68-1.016-2.584-.262-6.938-2.88-7.92-1.565.115-.839,2.521-2.16,2.88 .231,1.624-1.713,2.846-1.44,5.28 .709,2.07 4.019-.72 4.56,1.44-2.035.944-4.123-.399-6-.72s-3.768-.022-5.52-.24c-4.27-.531-6.649-3.058-9.84-4.56-3.748-2.928-6.315-6.269-8.88-10.32-.512-.809-.719-1.793-1.2-2.64-.966-1.703-2.377-3.198-3.12-5.04-.259-3.335-2.01-5.672-4.56-7.44-.315,1.483 1.45,2.834 2.16,4.08 .266,1.036.241,1.773.96,2.88 .112.172.664.374.72.48 .281.535.224,1.16.48,1.68 .225.457.681.71.96,1.2 3.583,6.278 6.315,12.395 12.72,16.32 2.846,1.744 5.067,3.226 8.64,4.32 1.349.413 2.75.798 4.56.96 1.912.17 5.053-.534 6.24.72-.599.856-2.079.195-3.12.24-6.213.268-12.03-2.369-16.8-5.04-1.652-.925-3.141-1.427-3.84-2.88-2.774-1.146-3.135-4.706-5.52-6.24-.4-.477.021-.306 0-.96-1.814-1.279-1.519-3.243-3.12-4.56-.103-1.338-1.114-2.286-1.68-3.36-1.176-2.232-1.652-5.216-3.36-7.2-1.226.052-1.657,1.389-2.64,1.92-.947.511-2.334.224-3.12,1.2-.894-.014-1.518.242-2.16.48-1.42,4.525-1.376,9.451-1.68,14.16-.05.78-.345,1.569-.24,2.4 .282,2.237 2.48,3.777 3.6,6.24 .512,1.126.698,2.867 1.2,4.32 .685,1.984 1.615,2.995 1.92,5.28 .082.798.909.851 1.2,1.44 .19,1.758-1.41,2.394-2.16,3.84 .396,3.178-.229,5.635-1.44,7.92 .528,4.721.477,9.367.48,14.4-.674.366-.368,1.712-1.2,1.92 1.563,4.507 10.323,7.468 12.96,2.16-.749-1.041-1.326,1.367-1.92.48 1.125-1.515 2.661-2.619 3.84-4.08 .771-.211.329.791.96.72 1.777-.943 5.442.002 7.2-.96 .135-1.545.217-2.33.48-4.08 2.775-1.443 6.625-1.808 9.36-.48 .673,3.881.251,12.379.48,16.8 .142,2.745-.208,3.481-3.36,4.08-1.777.337-3.776,1.349-5.52,1.2-.751-3.301-2.008-7.201-1.2-11.28-.973-1.277-3.007-.363-4.8-.48-1.747,2.57-5.329,5.574-11.04,5.04-2.97-.277-5.974-1.453-7.92-2.64-2.239,2.16-3.514,5.286-5.76,7.44-.932,3.308-4.322,4.158-6.24,6.48-2.155.084-3.989.491-4.8,1.92 .209,1.81-.34,3.512-.24,5.04 .069,1.05.871,1.963.48,2.88 1.241-1.389 3.946-3.479 6.24-4.8-.821-.859-2.005-1.355-1.92-3.12 1.213.546 2.708.812 3.36,1.92 2.391-1.208 4.956-2.244 7.2-3.6-.127-.847-.704-1.073-.24-1.92 .633-.327 1.637-.284 2.4-.48-.206.766.378.742.48,1.2-1.346,2.014-4.417,2.303-6,4.08-1.543-.11-3.181,1.539-5.04,2.88-2.343,1.69-5.137,2.511-5.52,5.52-.403,3.16 1.333,5.333 3.12,7.44 1.072-.369 2.014-.867 2.88-1.44-.357-.763-1.982-.258-1.44-1.92 .498-.994.88.414 1.44.48 .286.034.415-.566.72-.48 .507.142.591.481 1.2.72 1.554-.517-.271-1.818.48-2.88 1.912-.281 2.819,1.044 3.84-.24-1.091-1.571.452-2.528.48-4.32 1.014-.213 1.355.245 1.68.72 .137,1.097-1.067.853-1.2,1.68 .866,1.588 3.573.282 2.88-1.92 .917-.196.929.511 1.2.96 1.725-.834 3.206-1.914 5.04-2.64-.235,1.637-2.013,1.803-3.12,2.4-1.184.639-2.367,1.335-3.6,1.92-4.152,1.968-7.739,5.2-11.52,7.439-.687,2.504 1.029,4.442 1.92,7.44 .524,1.762 1.724,2.997 2.88,4.08 .185,3.255 1.794,5.085 4.08,6.24 2.454-.922 4.756-2.053 6.96-3.36 2.148-1.274 4.33-2.82 6.72-3.12-1.514,1.525-4.175,1.904-5.52,3.601-1.36.658-3.027,1.228-4.56,1.92-1.439.65-3.879,1.718-3.6,3.6 .131.884 1.305,1.707 1.92,2.88 .529,1.01.462,2.12 1.2,2.88 1.999.398 2.547-.652 3.6-1.199 .158-.862-.773-1.859.24-2.16 .969-.565.299.472.72.96 .493-.067.479-.642.72-.96 .676.242-.066,1.019 0,1.439 1.273-.167 1.726-1.153 2.88-1.439 .255-.896-.9-.38-.72-1.2 1.077-1.192.034-3.12 2.64-2.88-.409,1.19-.824,2.376-1.2,3.6 1.749.442 1.85-1.64 2.64-2.64 .941-.222.174,1.266.72,1.439 1.095.135 1.015-.904 2.16-.72-.427,1.318-1.648,1.178-3.12,1.68-1.439.492-2.592,1.669-4.08,2.4-1.961.965-4.277,1.329-5.76,2.88 1.494.985 1.532,3.428 3.12,4.32 .929.208.854-.586 1.44-.72 .771-.212.329.791.96.72 3.793-1.807 7.712-3.487 12-4.8 .112,1.393-1.404,1.155-2.4,1.439-1.921,1.438-5.438,1.282-6.96,3.12 6.071.442 9.861.085 16.08-.24 .718-.482.459-1.941 1.68-1.92 .266.454.306,1.134.48,1.681 1.609.043 1.321.559 2.64,0 .104-1.053-.735-.789-.24-1.681 .526-.273.98-.619 1.92-.479 .139.939-.207,1.394-.48,1.92 .791.615 1.919-.035 2.88,0 .331-.31.238-1.043.24-1.681 .744.376.916,1.325 1.68,1.681 6.488-1.327 12.459-.339 17.521-2.4-.124-2.533-1.895-5.02-2.4-7.92-.884-5.072-.232-11.24-.479-16.56-.125-2.67-.15-5.362.479-7.44 1.314,5.599.361,11.091 1.44,17.04 1.176-.576 2.398.124 3.359.48-.835.74-1.966-.264-3.12,0-.947,1.092-1.162,3.589-.96,5.279 .19,1.592 1.328,2.87 1.44,4.08 .89-.004 3.295.54 3.6-.72-.614-1.039-2.646.883-3.12-.96 .276-.844.717-1.523 1.921-1.44 .433-.913 1.433-2.315 2.88-1.439 .585,2.024-1.476,1.404-1.681,2.64 .738.565 1.348-1.044 2.4-.96 .681.515.398,1.278.24,2.16 1.051-.328 1.233-.029 2.16.24 .809-1.271 2.093-2.067 2.64-3.601 .856.024 1.647.112 1.92.721 .015,1.694-2.255,1.104-1.92,3.119 1.375-.145 1.107-1.932 3.12-1.439 .167,1.048-.693,1.067-.72,1.92 2.842,1.038 4.684-1.059 5.76-3.12 1.073-.078 1.895-.422 2.399.48 .148,1.428-1.241,1.318-2.159,1.68 .076.557-.039.921-.24,1.2 .036.443.812.147.96.479 .853-.528 1.227-2.198 2.64-1.439 .891.618-.871,1.153-.24,1.439 1.353.636 2.061-1.244 3.12-1.68 .238-2.266 1.968-4.241 1.2-6.72-2.031-2.442-8.565.33-9.36-2.88 1.268-1.134 1.987-2.814 4.561-2.641 .294,2.374-2.684,1.477-2.88,3.36 1.781,1.139 1.439-1.7 3.359-1.2 .513.49-.067.949-.239,1.44 1.653,1.419 4.18-.643 5.76,0 .617-.423 1.036-1.044 1.68-1.44 .31-2.17.236-4.724 1.44-6 .115-.756-.737-.543-.48-1.44 .7-.529 1.181-.745 2.16-.479 .622-1.912-.17-3.813 0-6-1.377-1.282-2.617-.528-4.8-.48 .475-1.125 2.778-.421 3.36-1.44 .755-.115.938.342 1.439.48 3.781-7.968 6.887-17.105 7.44-27.6-.593-.564-.783.627-1.44.72-1.412-.638-2.311-.426-3.6-.96-.111-1.151.196-1.883 1.199-1.92 .199-1.081.667-1.894 1.921-1.92 1.533.581.194,2.545 1.68,3.12 1.244-1.852.21-3.869-1.2-4.8-1.52-1.003-4.323-.832-5.28-2.16 1.817.438 4.675.432 6.24,1.44 .692.445 1.776,1.905 1.92,2.64 .214,1.092-.796,3.064-.72,4.56 .026.53.485,1.083.479,1.44-.046,3.03-1.436,6.327-2.159,9.6-1.348,6.092-3.357,12.31-5.521,15.84 .327,4.087 1.281,9.36-2.399,10.56-.373,1.48.003,3.191-.48,4.56-.384,1.087-2.23,1.866-1.2,2.641-.283.436-1.251.188-1.68.479 .85,3.203-1.183,5.296-1.44,8.16-.597-.037-.742.377-1.199.479 .612.174 1.936.22 2.64,0 .671-.309-.756-.496-.48-1.199 1.535-.499 2.153-3.082 4.32-2.16 .076,1.276-1.278,1.121-1.68,1.92 .832.529 1.212-.5 2.399,0 .204,1.004-.649.95-.96,1.439 .574.146 1.741-.301 1.92.24 1.07-1.65 1.977-3.464 4.561-3.6 .306,1.002.722,2.38 0,3.12 .47,1.105 1.569.134 2.399.72-.958,1.842-4.429.245-6.479.24-1.198-.004-2.598.181-3.84.24-2.191.104-4.351.369-6.48.479-.372,1.784-1.527,5.269-3.12,3.6 .789-.77 1.482-.83 1.681-1.92 .124-.686-.778-1.236-.24-1.92-.858-.392-1.91-.036-3.12,0-1.639.049-3.393-.646-5.04-.72-.353-.016-.872.283-1.2.24-2.603-.342-4.095-1.743-6.72-1.2-1.445.299-3.739.308-5.76.96 .618,1.861.97,3.99 1.68,5.76 2.889.312 5.846.529 8.88.24 3.688-.351 8.514.168 12.96,0 1.176-.045 2.429-.215 3.601-.24 1.379-.03 2.639.102 3.84,0 .398-.033.561-.4.96-.479 2.13-.426 5.895.354 6.96-.48 1.359-1.064 3.5-2.49 3.84-4.08-.335-.722-1.242.499-1.68-.239-.059-1.499 1.897-.982 2.88-1.44 1.286-1.066 2.673-1.624 3.359-3.12 .505-1.099.08-2.37.48-3.6 .539-1.655 2.595-3.266 2.16-5.28-4.104-2.702-9.477-3.374-15.12-4.08 .897-.542 2.025-.854 2.88-1.44 .994-.003.898,1.987 2.16.961 .612-.732-1.135-.643-.96-1.681 .604-.941 1.934-.754 2.88-.24-.193,1.185-1.131,1.497-.24,2.641 .658.622 1.996.563 2.88.96 .468-.652.818-1.423 1.681-1.68 1.129.15 1.019,1.541 2.399,1.439v1.2c.563.236 1.18.421 1.92.479 .912-1.728 1.943-3.337 2.4-5.52-.046-.194-.241-.239-.24-.48-3.1-1.06-6.18-2.14-9.6-2.88 .65-.712 1.771.136 2.64,0 .798-.482.571-1.988 2.16-1.68 .567.639.144,1.74-.48,1.92 .526.747 1.981,1.599 3.12.96 .256-.286-.491-.821.24-1.439 .741.059 1.356.243 1.92.479 .103.902-.75.85-.96,1.44 .563.076.901.379 1.68.239 .673-.447.926-1.314 1.2-2.159-.795-.308-2.209.661-2.64-.721 .267-1.574 2.296-1.249 3.12-.479 .485-.875.583-2.137.96-3.12-.071-.49-.649-.471-.72-.96-1.671.07-2.947-.253-3.601-1.2-4.061-.579-7.331-1.948-9.12-4.8 .489-.071.471-.649.96-.72 .872.008 1.055.706.96,1.68 .658.702 1.408,1.312 2.641,1.44 1.658-.792 2.469-2.707 4.8-2.16 .115,2.115-2.106,1.894-2.64,3.36 1.484,1.476 1.763-1.864 3.359-.96 .465.861-.092.879-.24,1.68 .592,1.009 2.06,1.141 3.601,1.2 .741-1.818 1.281-3.839 1.68-6-.479-1.522-3.226-.775-2.88-3.12-.231-1.031 1.179-.421 1.2-1.2-1.091.585-3.357,1.837-3.84-.24 .586-.134.511-.929 1.439-.72 .102.501-.164.636-.24.96 .997-.604 1.65-1.55 3.12-1.68-.002.637.091,1.371-.239,1.68 .152.487 1.121.158 1.199.72 .245,1.044-.496,1.104-.72,1.68 2.522,2.242 2.23-1.018 2.88-3.6 .569-2.263 2.042-5.121 1.681-6.48-.597-.364-1.457-.463-2.4-.48-.585-2.412-4.663-2.45-6.72-4.08 2.44-.439 4.238,1.84 6.72,2.16 .244.315.235.885.479,1.2 1.26-.13 2.293.945 3.36.24-.428-3.252-4.028-3.332-5.52-5.52h-1.92c-2.579-1.902-5.979-2.982-7.44-6h-1.68c-3.317-2.284-7.207-3.994-10.08-6.72-.278-2.762-1.518-4.562-2.641-6.48 .236-1.256 1.279-2.31.96-4.56-.218-1.539-1.092-3.003-1.439-4.32-3.465-13.12.018-31.138 6.479-38.88 1.458.648 1.807-.58 2.641-1.2-.047-1.633-.628-2.732-.96-4.08-2.447.287-3.669-.651-4.32-2.16-1.292-.193-1.994.514-2.64-.24 .104-1.513 2.312-1.096 3.12-.72 .94.438 1.171,1.726 1.92,1.92h2.64c.808,1.711 1.832,4.082 1.44,6.24-1.376.464-2.174,1.507-3.601,1.92 .053,4.116.203,7.825-.479,12.48-.736.144-1.178.583-1.2,1.44 .459.638 1.019-1.514 1.68-.72-.221,2.02-.463,4.017-.96,5.76 .001,1.041 1.415,1.238 1.68,2.4 .397,1.739-.66,3.826-1.439,5.04 .324,2.241 1.136,3.784.72,5.52-.537,2.241-3.13,3.405-3.6,5.76 1.296.204 2.141-1.981 2.64-3.36 2.079-.177 3.115.779 3.36,1.92 .303,1.411-.9,2.937-.96,4.08-.026.506.385.903.479,1.44 .352,1.984-.067,4.442.48,5.76 .521,1.254 1.938,1.98 2.399,3.12 .565,1.396.332,2.893.96,4.08 .719,1.358 2.227,2.336 3.36,3.6 2.006,2.235 3.348,4.431 6.48,5.52 .879.306 1.937.049 2.88.48 .534.245 1.166,1.131 1.92,1.68 1.405,1.024 2.666,1.542 3.84,2.88 .188,1.388-.349,2.052-.24,3.36-.83-.19-1.013.267-1.439.48 .224,4.393-1.104,9.29-3.36,12 .235,2.121-1.109,3.872-1.44,5.76-.097.555.129,1.132 0,1.68-.626,2.668-2.419,4.824-2.159,7.439-.397.883-1.119,1.441-1.681,2.16-1.031,3.237-2.83,5.991-3.6,9.12-.433,1.755-.401,2.686-1.2,4.08-.71,1.238-1.454,2.065-2.4,3.36-.598.818-.954,1.791-1.439,2.399-.604.758-1.627,1.231-2.16,1.92-.482.623-.533,1.395-.96,1.92-.277.342-.905.414-1.2.721-.873.906-.95,2.291-1.92,3.12 1.129.95 1.913,2.246 3.12,3.12-.174.732.245.874.24,1.439 2.557,3.824 4.504,7.889 6.72,12.48 .672,1.393 1.837,2.531 2.4,3.84 1.315,3.059 1.464,6.548 3.119,9.6 3.162.934 5.387,4.608 7.2,7.68 .924,1.563 2.666,3.588 2.88,4.561 .856,3.884-2.76,5.236-4.08,8.16-1.506.973-3.166,1.793-4.319,3.12-1.976.344-4.06,1.181-6,1.92-.555.211-1.362.581-1.92.72-1.244.31-2.872-.16-4.08.24-1.594.527-2.379,2.541-3.84,2.88-4.376.509-9.906,1.79-14.4,2.64-3.956.749-7.992.354-10.32,2.641 .128,1.567-.827,2.053-.72,3.6-.44.28-.812.627-1.2.96-6.58-.06-12.733-.547-17.28-2.64-6.711.768-13.359-2.647-17.76-.48-1.553-.332-2.674.145-4.08,0-2.41-.246-4.681-1.775-7.2-1.92-1.517-.087-2.775.006-5.04-.24-.911-.099-1.642-.685-2.64-.96-2.009-.554-2.422-.344-3.84-1.439-1.002-.774-1.697-.89-1.92-2.4-.2-1.36.686-4.16 1.2-6 1.501-5.366 4.016-11.737 5.52-16.32-1.204-1.332-3.069-.639-4.56-.96-.48-.103-.653-.549-1.2-.72-.759-.236-1.885-.03-2.4-.24-.873-.355-1.542-1.521-2.64-2.159-2.745-1.599-6.092-1.509-7.2-4.32 .429-1.091 1.609-1.431 2.64-1.92 .103.457.517.603.48,1.2-.592.447-2.096-.017-2.16.96 .591.489 1.19.808 1.92,1.199 .636.343 1.519.979 2.16.96 1.737-.051 2.006-2.006 3.84-2.159 .003.477.655.305.48.96 .134,1.253-2.046.193-2.16,1.199 .134,1.533 1.449-.179 2.16.48 .037.677-.679.602-.96.96 .572.708 1.051,1.509 2.16,1.68 1.12.001.637-1.603 1.92-1.439 .325.708.3,1.485-.24,1.92 .914.113 1.498-.102 1.68-.72 .425.853.421.642 1.2.239 .077.557-.039.922-.24,1.2 1.206-.086 2.176.063 2.88.48 1.362-1.646.459-4.053.72-6 .26-1.944 1.154-3.511 1.68-5.28 .641-2.159 1.384-4.272 1.92-6.48-2.279-1.001-4.826-1.733-7.68-2.159-.655-.706-1.464-1.256-2.16-1.921h-1.2c-.652-1.827-4.165-.795-4.32-3.119 1.319.331 2.711,1.426 4.08.96 1.376,1.504 3.235,2.524 5.28,3.359 .069-1.61 1.924-1.436 2.16-2.88 .832-.431 1.639-.047 1.68.96-.196.604-1.095.505-1.92.48-.295.425-.175,1.265-.72,1.439 .85,1.311 3.292,1.029 5.04,1.44 1.252-2.748 2-6 3.6-8.4-1.797-1.445-4.214-.528-6.48-.72-2.212-.187-4.447-1.092-6.48-1.2-1.301-.069-3.363-.021-5.04-.479-.025-1.255.783-1.144 1.68-.96 1.004-.305.815-1.578 2.16-.96 .182,1.271-.628.226-.96.72 .555.881 2.118.797 2.88.24 .161,1.23 2.071,1.32 2.88,1.199 1.061-.158 1.714-1.66 2.64-1.439-.567-.596-.002-1.413 0-2.16-3.408.583-6.483-.651-10.08.24-3.355,2.324-3.511,7.849-5.52,11.52-.174.734.414.706.24,1.44-1.619,2.912-1.172,6.503-3.6,8.399-2.82,5.021-4.702,10.979-8.4,15.12-.393,3.392-3.965,4.808-3.12,8.4 .576,2.447 3.958,2.381 5.52,4.32 .28.759.391,1.688 1.2,1.92 .957.237.723-.718 1.68-.48 1.839.22 2.498,1.335 4.56,1.68 1.102.185 2.317.067 3.36.24 .812.135 1.463.573 2.16.72 1.599.337 3.622.227 3.6,2.16-2.106.709-3.818-.794-5.76-1.199-1.359-.284-2.778.04-4.08-.24-1.114-.24-2-1.091-3.12-1.44-1.87-.583-4.055-.472-5.52-1.92-.103-.457-.517-.603-.48-1.2-1.645-.436-2.54-1.62-4.08-2.16-.291-.909-.464-1.936-.96-2.64 .529-4.111 2.749-6.531 4.08-9.84 2.218-1.702 2.794-5.046 4.56-7.2 .976-3.504 2.75-6.21 4.56-8.88 .272-2.223 1.211-3.853 1.68-5.52 .465-1.653.691-3.197 1.2-4.561 .201-.538.609-1.22.96-2.16 .445-1.193.493-2.714.96-3.6 .495-.939 1.923-1.399 1.92-2.64-.38-.501-1.679-.081-2.16-.48 .192-1.809.207-3.793 1.44-4.56-.331-.79-.714-1.527-.96-2.4-2.924-2.587-5.229-6.835-6.24-10.56-.627-1.281-1.941-1.461-2.64-2.641-.564-.952-.463-2.276-.96-3.359-.828-1.809-2.38-3.583-3.36-5.521-.551-1.09-1.066-1.941-1.44-3.12-.334-1.054-.486-2.288-.96-3.359-.88-1.988-2.602-3.672-3.12-5.76-.258-1.041.054-1.951-.24-2.88-.154-.487-.37-.984-.72-1.44v-1.44c-.141-.5-.504-.775-.72-1.2 .055-3.502.873-5.676.48-9.12 2.355-3.565 6.164-5.677 9.36-8.4 1.028-3.299.963-6.544 1.44-9.84 .112-.772.63-1.603.72-2.4 .157-1.382-.246-2.91-.24-4.32 .004-.96.272-1.75.24-2.64-.022-.634-.425-1.221-.48-1.92-.069-.891.24-1.684.24-2.64 0-2.758-.639-5.476-.24-8.16 .148-.995.215-1.725.24-3.12 .009-.489.415-.622.48-1.2 .122-1.09-.408-2.582-.24-3.6 .086-.521.443-.941.48-1.44 .157-2.103-.548-4.359-.24-6.48 .379-2.61 3.465-5.138 1.92-8.4 .721-5.614.441-12.775 2.88-17.28 2.132-1.308 4.255-2.625 6.72-3.6-.209-1.169.328-1.592.48-2.4 3.47-1.89 7.53-3.19 9.36-6.72h3.12c.9,2.38 1.92,4.64 3.84,6 8.227-3.743 22.024-2.846 33.118-1.918 3.845.321 7.7,1.167 10.32,2.64 .953-.407.882-1.838.96-3.12 1.067-.292 2.101-.62 3.359-.72 1.206,3.181-1.442,5.445-1.68,8.64 1.101.66 2.082,1.438 2.88,2.4 .54-.1-.036-1.316.72-1.2 .638.243 1.366.395 1.44,1.2-.319.342-1.358.342-1.679,0zm-61.2-4.8c.109.899 1.47.544.72,1.68 2.896-.544 3.894-2.987 6.48-3.84-.685-1.715-1.652-3.148-3.12-4.08-1.715,1.725-4.774,2.106-5.76,4.56 2.214,2.684 4.136-2.13 6.24-1.68-1.208,1.432-3.556,1.723-4.56,3.36zm28.08-.96c-.375,1.095-1.861,2.066-1.2,3.12 .395-1.525 1.378-2.461 1.68-4.08 .729-.276 1.678-2.191.72-2.64-.858.972-.738,2.247-1.2,3.6zm.72,5.28c.742.022.715-.725.72-1.44 .965-.795 1.827-1.693 1.92-3.36 .936-.985 1.764-2.077 1.92-3.84-.053-.187-.201-.279-.48-.24-1.973,2.347-3.35,5.29-4.08,8.88zm-6.96-.72c.388-.357 1.754-1.412 1.92-1.68 .442-.714.335-1.83.72-2.64 .681-1.434 1.987-2.098 1.92-3.36-.053-.187-.201-.279-.48-.24-1.665,2.335-3.044,4.956-4.08,7.92zm8.88-7.92c-1.993,4.413-3.891,7.58-5.76,12.24 2.118-1.562 2.35-5.01 4.32-6.72-.168-.739-.168-.461 0-1.2 1.181-.979 1.75-2.57 2.16-4.32h-.72zm4.32,2.88c-1.652,1.549-2.763,3.638-3.12,6.48 1.5-.22 1.391-2.467 2.16-3.6 .265-.39.757-.397.96-.72 .653-1.044.779-2.107.96-2.88 .508-.452.824-1.096.96-1.92-1.394.126-1.476,1.564-1.92,2.64zm-3.6,4.32c.331.01.527-.113.72-.24 .309-1.291.805-2.396 1.68-3.12-.523-1.474 1.992-2.57.72-3.84-1.865,3.095-3.756,6.164-4.8,10.08 1.172-.348 1.26-1.78 1.68-2.88zm-11.76-1.2c1.474-1.407 2.431-3.329 3.12-5.52-.307-.013-.333-.308-.72-.24-.952,1.609-2.687,3.711-2.4,5.76zm14.16,2.88c1.201-.958 1.877-2.499 2.64-3.84 .809-1.422 1.666-2.902 2.16-4.56-.053-.187-.201-.279-.48-.24-1.696,3.104-2.856,5.284-4.32,8.64zm-12.24-2.16c.225-.975 1.105-1.295.96-2.64 .187-.053.279-.201.24-.48 .331.01.527-.113.72-.24-.197-1.085 1.609-2.43.48-2.88-.544,2.066-3.561,4.051-2.4,6.24zm4.32-4.32c-.093.307.276.696 0,1.2-.311.568-1.14.93-1.44,1.44-.737,1.255-.603,2.384-.96,3.84 1.099.55 1.009-1.005 1.44-1.68 .386-.604 1.145-1.244 1.44-1.92 .379-.868.203-2.069.72-2.88 .039-.061.454.063.48,0 .242-.583.032-1.16.24-1.68-.053-.187-.201-.279-.48-.24-.291.983-1.197,1.122-1.44,1.92zm10.56,4.8c-.642.417-1.618,1.445-.96,2.4 2.455-2.105 3.404-5.716 5.04-8.64-.051-.269-.267-.374-.48-.48-1.358,2.082-2.65,4.23-3.6,6.72zm-19.68-2.16c1.167-.913 1.279-2.881 2.16-4.08-.307-.013-.333-.308-.72-.24-.788,1.132-1.584,2.256-1.44,4.32zm2.16-.96c.156-1.1 2.252-2.631 1.2-3.36-.197,1.139-2.368,2.403-1.2,3.36zm22.56-3.12c-1.198,3.413-3.845,5.272-4.08,8.64 2.28-2.285 3.003-5.685 5.04-8.64h-.96zm-3.36,10.32c2.882-2.398 3.688-6.872 5.76-10.08-.053-.187-.201-.279-.48-.24-1.753,3.913-3.942,6.371-5.28,10.32zm4.56-5.52c-.646,1.332-1.783,2.68-1.68,4.08 2.015-2.553 2.95-5.544 4.8-8.64-.307-.013-.332-.308-.72-.24-.97,1.638-1.568,3.087-2.4,4.8zm4.56-4.56c-1.338,1.782-2.826,3.415-3.36,6-.941.161-.899,1.434-1.2,1.92-.583.944-1.842,1.725-.479,2.16 1.959-3.24 3.836-6.563 5.76-9.84-.308-.013-.333-.308-.721-.24zm-31.92,2.16c1.263.143 1.029-1.211 1.44-1.92-1.054.006-1.848,1.215-1.44,1.92zm30.72,3.6c-.571.35-1.149,1.113-1.681,1.92-.78,1.187-2.254,3.141-1.439,4.08 1.704-2.486 2.951-5.934 4.56-8.4 .092-.14.648-.12.721-.24 .115-.192.356-1.092.479-1.44s1.186-1.401 0-1.44c-.88,1.84-1.958,3.482-2.64,5.52zm2.4-2.88v1.2c-.423.217-.396.883-.96.96 .022,2.246-3.321,3.471-2.159,5.28 1.888-3.289 3.797-6.223 5.52-9.12-.027-.292-.072-.568-.48-.48-.741.62-.947,1.775-1.921,2.16zm-2.16,7.92c2.655-2.464 4.038-6.202 6-9.36-.027-.293-.072-.568-.48-.48-1.929,3.191-4.241,5.999-5.52,9.84zm-36.72-6.72c-.185-1.256-1.073-1.807-1.44-2.88-1.162.358-2.117.923-2.88,1.68 .859.047 1.522-1.342 2.4-.48-2.237,1.442-5.018,2.342-6.24,4.8 .595.312 1.165-.535 1.2,0 .095.575-1.093-.133-.72.72 .514,1.299 1.462-.112 2.16-.48 1.489-.786 3.173-1.52 3.6-2.88-.349-.131-1.24.28-1.2-.24 0-.96.605-1.314 1.68-1.2 .202.278.317.643.24,1.2 .557.077.921-.039 1.2-.24zm-.24.24c-2.147,1.613-4.037,3.483-6.72,4.56-.087,1.047.437,1.484.96,1.92 .219-.42.446-.833 1.2-.72 .466.414.869.891.96,1.68h-1.44v.96c1.103.012 2.469-1.653 3.36-2.64 .938-.342 1.578-.982 1.92-1.92-.524-.276-.772-.829-.96-1.44 .458-.102.435-.686 1.2-.48 .4.477-.021.305 0,.96 .733-.173.875.246 1.44.24-.349-1.331-.569-2.791-1.92-3.12zm41.76.96c-.893-.092-.444,1.156-1.2,1.2 .253,2.173-3.106,3.024-1.68,4.8 1.82-3.14 3.553-6.367 5.52-9.36 .013-.413-.185-.615-.479-.72-.743,1.338-1.672,2.489-2.161,4.08zm15.36-3.36c-1.619,2.782-1.909,6.186-2.88,9.6-.758,2.667-2.019,5.046-3.12,7.2-.583,1.141-1.064,2.586-1.68,3.6-2.438,4.019-6.154,5.539-10.32,7.68 2.867-.729 5.399-1.515 7.2-2.88 4.089-3.1 5.924-6.972 7.681-12.24 1.411-4.234 2.465-9.91 4.079-13.68h-.72c-.013.307-.308.332-.24.72zm-17.28,9.36c1.442-.194 1.832-1.878 2.399-2.88 .659-1.162 1.509-2.341 1.92-3.6 .638-.482 1.416-.824 1.2-2.16-.053-.187-.201-.279-.479-.24-1.378,3.262-3.692,5.587-5.04,8.88zm13.68-6.48c-.748-.143-1.37-1.656-2.16-.96 .677.214 1.503,1.523 2.16.96zm-11.76,6.24c.81-.73 1.546-1.741 2.16-2.64 .641-.938 1.336-1.974 1.68-3.12-.307-.013-.332-.308-.72-.24-.835,2.205-2.369,3.711-3.12,6zm6.72-4.8c-.289.751-.89,1.19-.72,2.4 1.516-.154-.549,1.261.96,1.44 .145-.496.371-.909 1.2-.72-.258,1.31.979,1.387 0,2.16 .664.376 1.718.361 2.399.72-.041.359.086.886-.24.96-1.376.417-.904-1.015-1.92-.96 .145,1.375.93,2.111 2.16,2.4 .313-1.687 1.137-2.864 1.2-4.8-1.333-.267-1.976-1.224-3.12-1.68 .098,1.502 2.36.839 2.4,2.4-1.663-.5-3.58-2.017-3.601-3.36 .479.241.379,1.062 1.2.96-.2-1.078-1.209-1.348-1.918-1.92zm-47.28,2.88c-1.134-.014-1.364.876-1.92,1.44 .674-.446 1.713-.527 1.92-1.44zm-2.88,8.4c1.848-1.753 4.2-3 5.28-5.52-1.68.24-1.44,2.399-3.36,2.4 .091.811-.416,1.024-.72,1.44-.586.213-1.041.56-1.92.48-.003-.477-.655-.305-.48-.96 .389-.891.987-1.573 2.16-1.68 .323-2.558 3.576-2.184 4.08-4.56-2.282-.178-3.923,2.299-5.28,3.84-.745.295-1.552.528-1.68,1.44 .381,1.299 1.086,2.274 1.92,3.12zm24.24-5.76c.842-.356 2.255-2.163 1.2-2.88-.278,1.082-1.305,1.415-1.2,2.88zm26.4,1.68c.529.486 1.378,1.624 1.68.96-1.276-1.363-2.732-2.547-4.08-3.84 1.048-.008 1.417.663 2.4.72 .149-1.43-1.922-.639-1.921-1.92-1.966.674-2.074,3.205-2.88,5.04 1.358,1.123 1.973,2.987 3.601,3.84 .062-1.434 2.379-1.023 3.12-.48 .242-.648 1.161-1.864.479-2.64-.209.351-.359.761-.96.72-1.169-1.631-3.15-2.45-4.08-4.32 1.254-.15 1.871,1.212 2.641,1.92zm-34.56-2.4c.882.083.726-.875.96-1.44-.791.008-.918.682-.96,1.44zm-9.84-.24c-.255.895.9.38.72,1.2-2.51,1.81-4.292,4.348-6.48,6.48 1.58.024 2.726-2.369 4.32-3.12 .418-.489-.179-.471.24-.96 1.553-.367 1.614-2.226 3.36-2.4-1.008,1.632-2.952,2.328-3.6,4.32 .99-.274 1.625-.013 2.16.72-.167,1.663-2.882,2.313-3.12.24-1.223.435-3.362,2.209-1.92,3.12 .127-.993.956-1.284 1.92-1.44 .241.479 1.061.379.96,1.2-.076.324-.342.458-.24.96-.546.174-1.226.214-1.68.48-.09,1.05.766,1.154 1.44,1.44 2.353-2.527 4.242-5.518 6.24-8.4-1.034-1.549-2.353-4.018-4.32-3.84zm-4.08,2.64c.675-.045 1.022-.417.96-1.2h-.72c-.201.279-.317.643-.24,1.2zm-2.16,2.16c.611-.029.931-.35.96-.96-.307-.013-.332-.308-.72-.24-.202.279-.316.644-.24,1.2zm44.4,1.2c.811.07.396,1.363 1.2,1.44-.058-.945.809-2.675-.24-3.12-.258.622-.868.892-.96,1.68zm-36.24,2.16c.912.28 1.455-1.346 2.16-2.16 .341-.394 1.379-.372.96-1.2-1.707.452-1.689,2.631-3.12,3.36zm.48,1.68c.787-.014.917-.683 1.92-.48-.155.955.635.965.48,1.92-.978-.179-.826.773-1.92.48-.691-.029-.417-1.023-1.2-.96-.096.624-.716.724-.72,1.44h1.68c-.174.734.414.706.24,1.44-.101.859-1.395.525-1.44,1.44 .218.422.841.439 1.2.72 1.648-2.592 3.194-5.286 4.56-8.16-.445-.835-.913-1.647-1.92-1.92-.888,1.432-2.039,2.601-2.88,4.08zm41.04-.24c-1.116-1.124-1.613-2.867-3.12-3.6 .824,1.259 1.713,3.723 3.12,3.6zm-6.24-1.44c2.23.97 1.922,4.478 2.88,6.72 .726-.154 1.385-.375 1.439-1.2-.351-.449-1.316-.283-1.199-1.2 .137-.663.254-1.346 1.199-1.2 .508.453.832,1.088 1.2,1.68 1.221-1.313-.348-2.25-.72-3.36-1.083.117-.748,1.652-2.4,1.2 .006-.565-.413-.707-.239-1.44 .612-.348 1.822-.098 1.439-1.44-.866.227-2.645.781-3.12-.96-.102.457-.516.603-.479,1.2zm7.44,1.68c.214-.507.73-.709.721-1.44-.563-.076-.901-.379-1.681-.24 .089.791.561,1.199.96,1.68zm-7.68.96c-.533.587-.036,2.204-1.44,1.92-.988.028-.042-1.877-.72-2.16-1.248.858-.059,2.857.24,4.32 .201.984-.291,2.095.72,2.64 1.408-1.146-.513-2.313-.24-3.84 .317-.003.22-.421.48-.48 .849-.129 1.236.204 1.44.72 .067.731-.77.934-.24,1.44 .51.239.894,1.238 1.439.72-.732-2.387-1.34-4.899-1.92-7.44-.243.797-1.328.751-1.2,1.92 .535-.104 1.302-.551 1.441.24zm-28.08-1.68c-1.005,1.075-1.415,2.745-2.16,4.08 1.322-.202 1.994.246 1.92,1.44-.166.474-.64.64-1.2.72 .829,1.639-.605,1.781-.96,2.88 .413-.013.615.185.72.48 2.194-1.966 3.016-5.304 4.32-8.16-.89-.47-1.543-1.177-2.64-1.44zm-8.64,2.16c-.646.413-1.812,1.25-1.44,1.92 1.158-1.082 2.026-2.454 2.88-3.84-1.237.257-1.262,1.097-1.44,1.92zm3.36,5.04c1.561-1.24 2.692-4.186 3.12-5.76-.892,2.068-2.223,3.697-3.12,5.76zm10.08-5.28c-1.969,1.952-2.478,5.363-3.84,7.92 .622.353.893.885 1.68.48-.377-1.125-.266-2.273.96-2.4 .73.149 1.227.533 1.2,1.44-.271.37-.69.591-.96.96 .563.077.901.379 1.68.24 1.202-2.478 2.273-5.087 3.12-7.92-.764-.399-1.004-.411-1.92-.24-.557.553.444.774.24,1.68-.597-.037-.743.377-1.2.48-.058-.343-.396-.405-.48-.72-.237-.957.717-.723.48-1.68-.325-.076-.458-.342-.96-.24zm18.72,1.2c2.479.552.428,4.185 2.159,5.52 .314-2.291-.694-3.906-.96-6.24-.307-.013-.332-.308-.72-.24-.002.477-.653.305-.479.96zm-16.56,7.44c1.332-2.269 1.787-5.414 3.36-7.44 .013-.413-.185-.615-.48-.72-1.023,2.495-2.58,5.872-2.88,8.16zm14.64-4.32c.153,1.223-.161,2.86.721,3.6 .978-.997-.774-3.298.479-3.84 .447.033.803.158.96.48 .085.819-.723,1.979-.239,2.4 .763-1.349 1.361-3.844 0-4.8-.232.568-.421,1.179-1.44.96-.202-.598-.314-1.286-.24-2.16h-.72c-.113,1.08.332,2.186.479,3.36zm36,1.44c1.107-1.054 2.068-2.253 2.4-4.08h-.72c-.277,1.486-2.112,2.683-1.68,4.08zm-61.44.48c.105-1.175 1.404-1.156 1.44-2.4-.307-.013-.333-.308-.72-.24-.172.797-1.429,1.759-.72,2.64zm-34.32,7.2c2.482-1.061 1.35-4.449 2.88-6.24-.494-.066-.226-.894-.72-.96-.916,2.575-2.358,4.004-2.16,7.2zm94.32-1.2c1.417-.583 1.665-2.335 2.4-3.6-1.011.988-2.196,1.804-2.4,3.6zm-94.56,7.68c1.169-.591.716-2.804 1.92-3.36-.045-2.746 2.49-4.993 1.2-7.44-.863,3.305-2.519,5.809-3.12,10.8zm94.56-4.8c1.354-1.298 3.281-3.544 3.36-5.76-.054-.187-.201-.279-.48-.24-1.039,1.921-2.54,3.38-2.88,6zm2.4-1.92c-1.043,1.997-2.738,3.342-3.12,6 1.473.028 1.885-1.747 2.399-2.64 .603-1.044 1.471-2.183 1.681-3.36h-.96zm-.96,4.8c.951-.415 2.008-1.985 1.681-2.88-.55.971-1.195,1.846-1.681,2.88zm-94.8,2.88c-.624.627-2.118,1.94-.96,2.88 1.118-2.482 2.236-4.964 3.12-7.68-.053-.187-.201-.279-.48-.24-.74,1.5-1.381,3.099-1.68,5.04zm94.08.24c-.423.83-1.689,1.676-.72,2.4 1.094-.836 1.537-2.522 2.4-3.84 .722-1.104 2.605-2.466 1.439-3.84-1.269,1.487-2.191,3.457-3.119,5.28zm-92.88,0c-.382.887-1.582,1.939-.72,2.64 .764-2.276 2.281-3.799 2.64-6.48h-.72c-.239,1.536-.683,2.641-1.2,3.84zm2.4.48c.269-.912 2.075-2.642.72-3.6-.299.966-1.82,2.776-.72,3.6zm.24,2.16c.443-.18 1.463-1.693 1.68-2.4 .135-.441.647-1.692-.24-1.68-.36,1.48-1.052,2.628-1.44,4.08zm2.88-2.4c.781-.019 1.293-.307 1.44-.96-.426-1.103-1.453.162-1.44.96zm87.84,1.44c.269.05.373.266.479.48 1.035-.165 1.338-1.062 1.44-2.16-.343-.058-.405-.396-.72-.48-.403.716-.95,1.289-1.199,2.16zm-94.08,2.88c-.894,1.731-3.105,3.525-1.92,5.52 1.431-2.649 2.782-5.378 4.32-7.92-.564-.076-.143-1.138-.96-.96-.713.896-.838,2.194-1.44,3.36zm95.76-2.88c-.751,1.729-2.424,2.536-2.88,4.56 .747.561 1.685-1.753 2.4-1.2-.442.998-1.558,1.323-1.681,2.64 2.341-.478 3.524-3.33 2.88-6h-.719zm-97.2,10.56c.366-2.204 3.368-4.117 3.6-6.24 .03-.271.404-1.178-.48-1.2-.794,3.014-3.568,4.391-3.12,7.44zm1.2-.72c-.998,1.704-2.584,3.675-1.2,5.52 1.004-2.315 3.275-4.513 3.12-7.2 .718-1.522 1.853-2.628 2.16-4.56-.053-.187-.201-.279-.48-.24-.751,2.017-2.517,4.629-3.6,6.48zm96.24,2.64c2.127-.753 2.168-3.592 3.359-5.28-.342-.058-.404-.395-.72-.48-.919,1.88-2.131,3.468-2.639,5.76zm.48,1.68c1.135.028 1.942-2.607 1.2-2.88 .064,1.425-1.335,1.385-1.2,2.88zm-98.16,5.52c1.637-.843 1.916-3.044 3.12-4.32-.644-1.817.879-2.182.24-3.6-1.137,2.623-3.605,3.916-3.36,7.92zm98.64-2.16c.756-.866 2.423-3.037 1.2-4.32-.24,1.382-2.463,2.996-1.2,4.32zm-61.68,1.44c-2.204-.021-6.375.008-7.44,1.92 .133,1.814.961,3.572 2.88,2.88 1.263,1.392 1.123,4.562.48,6.24-.726-.428-2.18.121-3.12.24-.017,3.793.035,6.356 1.68,8.16 2.328.007 3.654-.985 5.52-1.44 .412.782-1.15,1.155 0,1.2 .753.114.634-.646 1.2-.72-.025-1.576-.944-2.256-1.44-3.36 .304-3.234-.229-6.612-.48-8.4-.04-.287.264-.342.24-.72-.077-1.254-.851-3.096.24-4.08 .536,1.544.139,4.021.96,5.28 .086-2.726-.124-5.156-.72-7.2zm-37.2,5.04c1.438-.723 1.882-2.439 2.4-4.08-.053-.187-.201-.279-.48-.24-.929,1.15-2.006,2.155-1.92,4.32zm101.28.24c.53-1.229.715-2.806 1.44-3.84-.307-.013-.332-.308-.72-.24-.624,1.063-2.234,3.016-.72,4.08zm.48.96c1.129-.551 1.577-1.783 1.68-3.36-.307-.013-.332-.308-.72-.24-.068,1.451-.905,2.135-.96,3.6zm-101.04,2.4c1.723-.037 1.096-2.423 2.4-2.88 1.492.212 2.027-.533 2.4-1.44-1.084-.531-2.493.466-2.88-.96-.232,2.036-3.091,2.631-1.92,5.28zm103.44-1.2c-.562-.479.286-2.367-.721-2.4-.626.996-.457,2.96.721,2.4zm-81.12-1.2c-1.932,2.457-3.359,5.247-6.72,6-5.029,1.127-9.817-2.382-11.76-6-.276.992.097,2.232.72,3.12 1.051,1.498 5.727,4.032 7.68,4.32 2.978.438 7.048-.469 8.88-2.16 1.571-1.45 1.237-3.25 3.12-3.84 2.617-.82 5.684.587 7.2,1.44 .623-.453.925-3.264-.24-3.36-2.356-.194-5.602.796-8.88.48zm-19.2,5.76c-.522-1.318-1.084-2.596-2.64-2.88 .421,1.419 1.366,2.314 2.64,2.88zm-5.04,0c.995.691 2.275-2.255.48-2.4 .148,1.108-.539,1.381-.48,2.4zm.24,2.16c.831-.263 1.63-.823 1.2-1.68-.859.101-1.155.765-1.2,1.68zm96.96.48c.864.065 1.66.06 1.439-.96-.673-.288-1.53-.138-1.439.96zm-98.16,3.36c.352-.43 1.77-1.423 2.16-2.16 .165-.31.948-1.598 0-1.68-.316,1.562-2.605,2.304-2.16,3.84zm97.68,51.84h1.44c-.174-.732.245-.874.24-1.439-.997.042-1.168.911-1.68,1.439zm-39.6,7.44c1.18-.761 2.736-.342 3.12.96-1.041.75-1.445,1.849-.96,3.12 1.999-.561 2.35-2.771 2.399-5.28-1.213-1.477-4.249-.414-4.559,1.2zm36.72-.48c-.173.787-.503,1.416-1.439,1.439-.41-.099.05-.31 0-.72-1.175-.135-1.148.932-1.681,1.439h6.72c-.391-.969-2.179-.541-2.64-1.439 .534-.347 1.157-.603 2.16-.48-.394-1.203-2.128.005-3.12-.239zm-44.64,1.2c.359.282.283.998.96.96 .19-.852 1.2-2.039 1.92-.96-.125.661-1.856,1.222-.72,1.681 .796-.49 2.163-1.669 1.92-2.4-.961-.02-3.173-.482-4.08.719 .105-1.08-.938.017-1.2,0-.737-.045-1.481-.855-2.16,0-.027-.293-.072-.568-.48-.479-.342.058-.405.396-.72.479 .041,1.123.617.798.24,1.92 1.484.204 1.17-1.39 2.4-1.439 .116.756-.736.543-.48,1.439 1.297-.143 1.056-1.824 2.4-1.92zm17.28-.72v.72c1.521-.599 3.482.533 4.08-.72-1.511.238-3.193-.387-4.08,0zm20.64,1.68c.839.269 1.8-1.173 2.399-1.92-1.28.16-1.948.931-2.399,1.92zm1.92,0c1.047-.393 1.722-1.158 2.399-1.92-1.152.288-2.213.666-2.399,1.92zm-47.28-1.2c-.379.938.623.496.72.96-.484.167-1.041,1.092-.24,1.199 .569-.631.954-1.446 1.92-1.68 .067-.628-.088-1.032-.72-.96-.206,1.401-1.247.007-1.68.481zm20.88.96c1.263.222 1.27-.812 2.16-.96 .426-.056 1.202.241.96-.48-1.465.056-3.433-.393-3.12,1.44zm8.16,0c1.347.386 1.322-.599 2.16-.721 .575-.095-.133,1.094.72.721 .457-.329 1.57-1.508 1.92-.48-.271.609-1.205.555-1.439,1.2 1.769.828 2.518-1.278 3.6-1.92-1.677.005-3.896-.263-6.24-.24 .341,1.062-.813.628-.721,1.44zm7.2-1.2c.252,1.053-.812.788-.72,1.68 1.162.325 2.388-.831 2.88-1.92-.928-.128-1.172.429-2.16.24zm7.2,1.44c.859.288 1.762-1.211 2.64-1.68-1.404.035-2.161.719-2.64,1.68zm-50.16,0c-.668.108.188-1.308-.48-1.199-.22.942-.12,1.324.48,1.92 .047-.788 2.018-1.267.72-1.92-.334.305-.104,1.174-.72,1.199zm3.12.96c1.167-.271 2.016-.864 2.4-1.92-1.338-.767-2.414.559-2.4,1.92zm18,1.92c.572-.977 2.359-2.929 1.2-4.079-.621.982-1.076,3.397-1.2,4.079zm-20.16-1.68c.812-.235 1.923-1.426 1.44-2.16-.555.575-1.955,1.283-1.44,2.16zm-12.24,0c-.04-.696 1.386-1.153.72-1.68-.149,1.067-1.291-.348-1.44.72 .292.027.568.072.48.48-1.022-.211-1.485,1.378-1.2,1.68 .256-.544.728-.872 1.44-.96v.96c1.394-.228 3.208-2.25 2.4-3.12-.994.445-1.157,1.723-2.4,1.92zm55.68-.72c.727-.154 1.386-.375 1.44-1.2-.726.154-1.385.375-1.44,1.2zm-66,.48c1.323-1.062 4.598,1.27 4.56-1.199-1.133-.282-5.001-.082-4.56,1.199zm6.72-1.2c-.514.686-1.616.784-1.68,1.92 .815.64.909-1.046 1.92-.96v.72c1.162-.118 1.613-.947 2.16-1.68-1.17-.723-1.549,1.258-2.4,0zm6.48,1.44c.896-.304 1.485-.915 1.92-1.68-1.085.114-1.304,1.096-1.92,1.68zm25.92,2.88c.014-.146.036-.284.24-.239v.72c2.231-.641 3.291-3.216 3.6-5.04-1.187.173-1.779.94-2.4,1.68 .52.305.263,1.844-.48,1.68-.131-.349.28-1.24-.24-1.199-.449.83-.425,2.068-.72,2.398zm12.24-3.36c.751.111 1.071-.209.96-.96h-.96v.96zm-34.8.72c-.239-.481-.468-.972-.72-1.44-.531.203-1.691,1.01-.96,1.681 .193-.847 1.234-.853 1.68-.241zm68.16-.24c-.665-.17-1.462.18-2.4.24-3.01.194-7.367-.12-10.56,0-8.7.328-16.939.705-23.521.24-2.218,1.506-1.238,5.021-1.92,7.92-.121.514-.431.696-.479,1.2-.202,2.066-.024,3.547-.24,5.52-.115,1.052-.094,2.221-.24,3.12-.073.452-.633.926-.72,1.439-.455,2.695-1.18,4.608-1.2,6.961-.013,1.496.612,3.15.72,4.8 .477,7.265-3.631,16.086-.72,22.56 .486,1.082 2.6,3.686 3.36,4.32 .855.715 2.718,1.854 3.84.96-.362-.838-1.52-.881-2.16-1.44-1.198-3.083-4.891-4.091-4.8-8.88 .054-2.857.674-7.629.96-10.08 .211-1.805-.435-4.379 1.2-5.04 .78,2.801.084,5.174-.24,6.96-.081.445.271.535.24.96-.036.492-.47.815-.48,1.2-.068,2.531.445,5.451.24,8.641 1.973,3.228 5.364,5.035 6.96,8.64 1.696.384 2.673,1.487 4.56,1.68 .113-2.673-4.08-1.039-4.56-3.12 2.006-.527 4.241.691 5.76,1.44 .36.84.153,2.247.96,2.64 3.298.099 6.089-1.651 9.84-2.16 3.178-.43 6.878-1.166 10.561-1.92 4.156-.85 9.191-.653 10.319-3.84 .144-.497-.296-1.576.24-1.68 1.062-.367 1.312.9 2.641,0-.341,1.02 1.131,1.162 1.439,1.2 1.567.193 4.103-1.154 6.24-1.92 2.109-.756 4.242-1.706 5.52-2.881 1.33-1.222 4.166-4.753 4.08-6.479-.036-.735-.982-1.517-1.92-3.12-.756-1.294-1.13-2.94-1.68-3.6-.295-.354-.729-.364-.96-.721-1.054-1.617-1.13-2.452-2.4-3.359h-1.68c-3.379-5.662-4.736-13.344-8.4-18.721-4.079.881-7.328,2.592-11.279,3.601-.482-.798-1.984-.576-1.92-1.92 .522-1.03 1.021-.46 1.92-.24 .892.092.627-.973 1.68-.72 .476.164-.149,1.43.72,1.2 1.463-.378 2.32-1.36 3.84-1.681-.524-1.133-.396-2.525.24-3.6 .721.079 1.233.367 1.44.96-.143,1.056-1.936.922-1.2,2.16 1.092.227 3.562-.07 4.08-1.2-1.493-2.268-2.496-5.024-4.32-6.96-2.539,1.448-5.644,1.938-8.64,2.399-1.673.258-3.277.517-4.8.48 .328-1.308-.377-2.571 1.199-2.88 .383.177-.055,1.175.721.96 .344-1.176.075-2.964 2.16-2.4 .323,1.517.883,2.797 2.88,2.641 .544-.689-.445-1.668.72-1.92 1.024.095 1.178,1.062 2.16,1.199 .334-.306.104-1.175.72-1.199 .798.494 1.565.546 2.4,0-.203-1.704-1.552-4.158-3.121-4.56zm-84.48.96c-.864.034-2.22-.726-2.64.24 1.524.738 2.521-.273 4.8,0 .053-1.439-1.41-.269-2.16-.24zm25.92-.24c-5.64-.024-11.283,1.32-15.36,1.2-.961.828 1.31,1.269.48,1.92-.842.141-.789-1.134-1.44-.479 .026,1.217-.603,2.554.72,2.88 .945-.415.494-2.227 1.92-2.16 .468,1.331-1.062,1.458-.48,2.16h4.8c.743-1.056 1.499-2.131.96-3.84 .906.204 1.127-.797 1.68-.24 .099,5.131-4.657,8.256-5.28,13.68-.412,3.582-1.642,5.332-2.64,8.16 .308.732 1.438.643 1.44,1.68h-1.68c-1.585,1.65-.865,4.188-.96,6.721-.038,1.003-.652,1.868-.48,2.88 .07.411.333.771.48,1.2 1.584.519 3.134-.302 4.8.239 2.143,2.069 5.644,2.188 9.36,3.12 .43.108.747.588 1.2.721 3.234.943 7.648.853 10.32,1.92 1.082.335 2.197-.791 2.16.479-.907.373-2.092.469-3.36.48-.424-.456-1.191-.569-1.68-.96-2.82.59-6.854-1.035-9.12-1.681-2.076-.591-4.703-.68-6.72-1.439-1.593-.601-2.532-1.682-3.84-1.92-1.224-.223-2.656.194-3.84,0-1.594,4.669-4.204,9.523-4.32,14.88-1.209,2.199-1.245,4.203-1.92,6.72 .449-.013.508.185.24.48 1.1,1.377 2.455,1.487 4.32,1.92 1.833.425 3.632,1.069 5.76,1.2 3.732.228 6.629,1.543 9.36,1.68 2.49.124 4.827-1.231 7.44-.72 2.463.481 5.945,1.183 8.88,1.439 1.811.159 3.76-.293 5.521,0 .501.084.719.538 1.199.72 3.901,1.479 9.206,1.625 13.92,1.92 .628-.812 1.375-1.505 1.681-2.64-1.191-.928-2.711-.231-3.84-.479-2.165-.478-3.887-2.404-6-3.12-1.431-.484-2.845-.269-4.561-.721-.505-.854-1.525-1.194-2.399-1.68-2.394-3.274-4.642-6.6-4.561-11.04 .011-.582.404-1.319.48-1.92 .16-1.263-.124-2.465 0-3.6 .076-.694.613-1.215.72-1.92 .271-1.781.227-4.025.48-5.28 .131-.651.216-1.482.24-2.16 .095-2.644-.765-4.924-.72-6.96 .04-1.782 1.217-3.641.96-5.52-6.229-1.052-14.919.359-18.96-2.881-2.372-.588-6.207.287-6.96-1.92 1.178-.342 1.962-1.077 3.36-1.199-.207-1.087.265-1.495.96-1.681 .502.218.732.708.72,1.44-1.362.077-1.989.891-2.16,2.16 1.168.367.903-.697 1.68-.721 .235,1.205 2.131.749 3.12,1.2 .74.461 1.206,1.194 2.4,1.2-.024-1.063.284-1.796 1.2-1.92 1.089-.129.641,1.279 1.68,1.2 .523-.128 1.552-.581 1.68.239 .21.771-.623.498-.72.96 1.354-.074 2.134.426 3.6.24-.355-1.281.901-1.803 1.44-1.439-1.149,1.514.967.235.24,1.68 1.355.314 1.128-.951 2.16-.96-.077.557.039.921.24,1.2 1.813-.133 3.205.155 4.8.239 .812-3.117 1.286-7.101 1.68-10.8 .284-2.672 2.059-5.372 0-6.96-1.207.939-2.657,1.189-3.6,2.4-.297.381-.232,1.252-.48,1.68-.534.922-1.303,1.062-1.68,1.92-1.044-.164-1.328.432-1.68.96 .538.422 1.725.195 1.68,1.2-6.077-.243-10.939-1.7-17.04-1.92-.616-.775-1.197-2.562.24-2.88 1.117.083.513,1.887 1.44,2.16 .359-.041.886.085.96-.24-.065-1.215-1.038-1.522-.96-2.88 .73-.345 1.637-.245 1.92.479 .074.875-.038,1.562-.24,2.16 .739.179.461-.658 1.2-.479 .365.812-.178,1.041.48,1.439h1.2c.661-.299.493-1.428 1.44-1.439 .676.284.738,1.182 1.2,1.68 .964-1.188-.29-1.178-.24-2.64 .343-.058.405-.396.72-.48 2.076.255.925,2.264 1.92,3.601 1.472.236 1.953.191 2.64-.721 .359.282.283.997.96.96 1.134-2.036-2.009-1.38-2.16-2.88 1.551-1.41 3.661-3.537 3.84-5.52-3.466,1.587-7.896.262-12.24.243zm11.52,5.76c1.21-.069 1.67-.89 1.68-2.16h-.72c.126,1.166-1.02,1.06-.96,2.16z" fill-rule="evenodd"></path>
	<path d="m43.44,8.4c-.968,1.272-2.457,2.023-3.84,2.88 .25-1.034 2.588-2.05 3.84-2.88z" fill-rule="evenodd"></path>
	<path d="m56.64,29.52c.159-1.153 1.975-2 2.88-.96-.171,1.292-2.076,2.374-2.88.96z" fill-rule="evenodd"></path>
	<path d="m77.52,133.44c.266-3.932.404-6.004 0-10.08-5.439-.266-10.942.317-16.56,1.199-.896.142-1.447.9-2.4,1.2-2.599.819-5.48.834-7.92,1.44 .462-.898 2.238-.482 2.88-1.2-.329-.913-1.378-.004-1.2-.96-.832.075.576,1.13-1.2.96-.559-.856.462-1.838 1.44-1.92 .171-.949.29-1.95 1.68-1.68 .667.772-.129,2.011 1.68,1.92-.026.597-.45.742 0,1.199 1.25-.189 2.018-.862 3.36-.96-.076-.563-.379-.9-.24-1.68 1.876.037 1.706-1.974 2.88-2.64 1.338.021.446,2.273 2.4,1.68 .002.638-.09,1.371.24,1.68 .965.166 1.37-.229 2.16-.239 .331-.31.237-1.043.24-1.681 1.672-.088 1.528-1.992 3.12-2.16 1.209.605 1.872,2.303 1.92,3.36 1.946-.583 3.634.481 5.28-.479 .027-4.154-.072-7.249 0-11.041-.972-.092-1.104.656-1.68.96-.387,1.347.598,1.322.72,2.16-.905.294-2.032.368-1.68,1.92-7.092,1.628-15.072,2.368-23.04,3.12-.117-1.243-1.223-1.497-2.16-1.919-.318-1.101-.692-2.182 0-3.12 .876-.156 1.278.162 1.68.48 .245,1.044-.497,1.104-.72,1.68 1.787,2.033 7.419.227 9.36-.24 .654-.221-.335-.75 0-1.44 .527-.273.981-.619 1.92-.48 .139.779-.164,1.117-.24,1.68 2.162.246 4.881-.823 7.44-.96 .478-.429-.819-1.373.24-1.92 1.269-.208.034.586.96.72 1.134-.122-.25-1.371.48-1.68 1.172.12.548,1.564.24,2.16 .677.557 1.5-.277 2.64,0 .299-.933.045-1.349.72-2.16-.03-.53-1.018-.102-1.44-.24-.027-.807-.48-1.27.24-1.68 1.271-.182.227.628.72.96 1.245-.38 1.618-2 3.36-1.2-.383-1.377-.203-3.317-.24-5.04-1.98.814-2.765-.875-4.08-1.44 .208-1.594 2.48-2.997 3.6-2.16 .28,1.24-.67,1.25-1.44,1.44 .501.379 1.262.498 2.16.48-.468-3.143.099-6.353 0-9.36-1.641-.054-2.663,1.731-3.84.72 .126-1.474 1.93-1.269 2.4-2.4 .73-.011.933.507 1.44.72 .047-4.686.019-6.836-.24-10.8-1.471.049-2.161.879-3.36,1.2-.138-.502-.595-.685-.48-1.44 1.785.185 1.527-1.673 2.88-1.92 .581.576-.583.635-.24,1.68 1.823.223 1.239-2.591 1.44-4.56 .176-1.727.566-3.835.24-6 .103-.663-.895-.225-.96-.72-.326-1.046.572-.868.72-1.44-1.114-7.467 1.48-15.745.48-22.56 1.976,1.144.83,5.411 1.92,7.44 2.543.304.049-4.431 1.92-4.8-.045,4.142.28,7.992.239,11.76-.014,1.347-.5,2.736-.479,4.08 .009.595.417.829.479,1.44 .212,2.065-.391,4.132-.239,6.24 .042.594.438,1.201.479,1.68 .106,1.22-.608,2.296-.72,3.6-.051.595.245,1.111.24,1.68-.01.973-.686,2.054-.721,3.12-.041,1.278.333,3.342-.239,5.04 1.33,5.184-.05,13.312.72,17.28 .405-.739 1.468-1.19 2.399-.72 .245,1.044-.496,1.104-.72,1.68-.768-.033-1.836.236-1.68-.72-.806,1.73-.393,5.302 0,6.72 .892.092.627-.973 1.68-.72 .03.431-.294.506-.24.96 .44.755.813-.807 1.2,0 .05,1.09-.545,1.535-1.68,1.44 .566,3.457 4.97,2.244 7.439,3.36-.104,1.014-1.152.251-1.68.24-2.983-.067-5.493-.401-6.24-2.4-.83-.195-1.013.448-1.439,0-.729-7.896.465-16.427-.48-24.96-.199-1.795.562-3.711.48-5.28-.018-.328-.481-.713-.48-.72 .059-.66.635-1.354.72-1.92 .172-1.15-.116-2.369 0-3.6 .075-.803.464-1.65.479-2.4 .058-2.8-1.069-5.768-.96-8.64 .058-1.518.991-3.118.96-4.56-.013-.601-.485-1.332-.479-1.92 .02-1.984.873-4.361.479-6.48h-1.44c-.695,3.728-1.184,7.564-.72,11.28 .067.536.458,1.125.48,1.68 .06,1.488-.546,2.868-.48,4.32 .023.515.382.906.48,1.44 .527,2.886-.544,6.091-.72,9.12-.333,5.731 1.273,11.732-.24,17.28 .955,3.322.003,9.026.48,13.68 .298,2.912.205,6.209.72,9.121 .481,2.718.038,6.957.24,10.319 .058.969.658,1.917.72,2.88 .132,2.045-.146,4.068.479,6.48 .381,1.47 2.254,3.636 1.2,5.76-2.183-.218-1.308-3.492-2.64-4.56-3.602.034-6.548-.965-9.84,0 .013-1.107-.106-2.347.24-3.12 .897-.021.684-.27 1.44,0 .14.939-.207,1.394-.48,1.92 2.051-.086 5.675.25 7.92,0 .014-2.683-1.24-5.026-1.2-8.4-9.096.03-19.701.842-27.36,4.32 .433,2.447 1.419,4.341 2.4,6.24 .825-.102 1.446-.242 2.16.24-.191.769-1.378.542-1.68,1.199 .034.926.811,1.109.72,2.16-1.324.046-1.913-1.683-2.4-2.88-.768-1.889-1.205-3.706-1.92-6-.73-2.343-1.171-5.728-1.44-9.36-.084-1.131-.914-2.984.48-3.6 .317,3.763.706,7.454 1.68,10.56 .591-.031 1.156-.036 1.44.24 .803-.502-.925-.901-.24-1.2 .985-1.185 1.409-3.35 3.84-2.399 .17.89-.41,1.03-.24,1.92 .868.747.686-1.092 1.68-.96-.027,1.906 2.104.4 3.12.479 .231-.87-1.078-.201-.96-.96 .472-1.288 1.957-1.563 2.16-3.12 .497.144 1.577-.296 1.68.24 .332,1.292-.878,1.042-1.44,1.44 .225,1.185-.292,1.628-.72,2.16 2.18.856 1.418-3.191 4.32-2.4 .199.861-.541,1.161 0,1.68 3.997-.662 8.721-1.028 12.724-.238zm-15.12-9.36c-.367-.764-.084-1.056 0-1.92-1.115.405-1.448,1.592-2.16,2.399 .566-.313 1.658-.1 2.16-.479zm9.12-8.64c-3.067,1.302-6.853.418-9.6,1.92 3.876.103 7.163.145 10.08-1.44-.027-.293-.072-.568-.48-.48zm-10.08,1.92h-2.64c.135,1.006 2.355.396 2.64,0zm6.72,5.76c.284.276.848.271 1.44.24 .377-.583.895-1.025.72-2.16-1.248.112-1.369,1.351-2.16,1.92z" fill-rule="evenodd"></path>
	<path d="m56.4,24.48c.079.985-1.116,1.434-1.44,1.44-2.897.059-.336-4.117 1.44-1.44z" fill-rule="evenodd"></path>
	<path d="m97.44,26.64c-.503.739-2.076.535-2.641,0-.209-2.251 2.536-1.338 2.641,0z" fill-rule="evenodd"></path>
	<path d="m110.88,28.56c.279-.039.427.053.48.24-.361,1.239-1.322,1.878-1.44,3.36 .748-.269 2.715.266 4.08.72 .081,1.121-.665,1.415-1.2,1.92-.9.181-.523-.917-1.2-.96-1.077.361-1.824.212-2.399-.48-.856,1.304-.508,3.812-2.16,4.32 .708-3.611 2.281-6.358 3.839-9.12z" fill-rule="evenodd"></path>
	<path d="m73.92,38.88c.015,1.535-.637,2.403-2.4,2.16-.348-1.861.937-2.849 2.4-2.16z" fill-rule="evenodd"></path>
	<path d="m55.2,47.28c.102.458.686.435.48,1.2h1.44c.616-.024.386-.894.72-1.2 .879.001.637,1.124 1.92.72-1.506,1.155-4.619,2.226-6.48.96-.133-1.333.716-1.684 1.92-1.68z" fill-rule="evenodd"></path>
	<path d="m93.6,49.44c-.346.774-.786,1.454-1.92,1.44-.106-.213-.211-.429-.479-.48-.043-1.434 1.795-2.183 2.399-.96z" fill-rule="evenodd"></path>
	<path d="m107.52,50.4c.854,1.426-.438,2.535-1.68,2.64-1.021-.971.076-2.822 1.68-2.64z" fill-rule="evenodd"></path>
	<path d="m103.44,48.96c.388-.067.413.227.72.24 .1,1.78-.296,3.064-.48,4.56 .591.443 1.8-1.083 2.88-.24 .058,1.323-1.975,2.621-2.88,1.44-.873.327-.745,1.655-1.199,2.4 .169,1.031 1.738.662 1.68,1.92-2.199-.76-4.23-1.69-6.48-2.4 .701-1.242 2.701.107 3.601.24 1.706-1.732 1.674-5.204 2.158-8.16z" fill-rule="evenodd"></path>
	<path d="m59.28,53.04h1.2c-.026,2.21-1.633,3.307-3.6,2.88-.342,1.062.812.628.72,1.44 2.462.143 3.147-1.493 4.32-2.64 2.491,1.024 5.402.304 8.16-.48-.232,1.847-3.236.924-4.32,1.92-3.619-.551-5.513,2.192-8.88,2.64 .313-1.317.156-1.433-.96-1.68v-1.44c1.316-.684 3.623-.377 3.36-2.64z" fill-rule="evenodd"></path>
	<path d="m89.28,57.12c.143.766-.45.742 0,1.2 .819.18.305-.975 1.2-.72 .102.458.686.434.479,1.2 .436-.524.807-1.113 1.92-.96 .671.504.35,1.23 0,1.92-1.679-.398-1.403,1.157-2.16,1.68-.876.156-1.278-.162-1.68-.48 1.231-1.769-2.723-3.206.241-3.84z" fill-rule="evenodd"></path>
	<path d="m102.24,61.2c-.581.299-1.166.594-1.92.72-.257.801.076.819-.24,1.68-1.062.774-2.946.459-2.64-1.44 .73-.229.965-.955 2.159-.72-.008-1.122-.682-.458-1.439-.48-.412-.388-.597-1.004-.48-1.92 1.134-.417 1.402.211 2.16.72 1.41-.13 2.437.122 2.4,1.44z" fill-rule="evenodd"></path>
	<path d="m54,63.84c-.106-.213-.211-.429-.48-.48-.229-1.829 1.015-2.185 2.64-2.16 .682,1.52-.688,2.53-2.16,2.64z" fill-rule="evenodd"></path>
	<path d="m43.68,62.16c-.029.691.131,1.571-.24,1.92 1.225,1.513 3.807-.509 4.56-.24-1.277,1.542-5.295,1.559-6.96,1.92 .108-.608.718-2.586 1.2-3.6h1.44z" fill-rule="evenodd"></path>
	<path d="m55.2,65.28c.617-.742 1.137-1.582 2.4-1.68 .755,1.326-.304,2.67-1.2,3.12-.817.017-.894-.706-1.2-1.2-.847.194-.615,1.465-1.68,1.44-2.819-1.1 1.168-4.92 1.68-1.68z" fill-rule="evenodd"></path>
	<path d="m108.96,64.08c.195.995-.699.901-.96,1.44 .217.423.884.396.96.96-.069.891-.271,1.649-.96,1.92-1.574-.026-1.511-1.689-3.12-1.68-.173-.733.245-.875.24-1.44 1.581-.077 2.39-3.181 3.84-1.2z" fill-rule="evenodd"></path>
	<path d="m40.56,74.16c.063.783-.747.693-.96,1.2 .231.944 1.397.182 1.92,0-.192-.833.357-.922.24-1.68h1.44c-.273,1.293.08,1.006.24,2.16-1.469.611-3.453.708-5.04,1.2-.866-1.433.246-5.143 2.16-2.88z" fill-rule="evenodd"></path>
	<path d="m115.44,36.48c.233.007.186.294.239.48-1.402,5.328-2.6,13.115-1.92,18.96-.897,3.898.861,8.972 3.36,11.04-.729,1.911-3.846,1.435-6.24,1.68-.967.953-.771,3.069-1.439,4.32 .112,1.328 1.057,1.822 1.199,3.12 .701-.339.762-1.318 1.2-1.92 2.433,1.057-.061,3.38.48,5.04 .832-.208.525-1.555 1.199-1.92 .983.36-.997,1.833 0,3.12-.896.257-.684-.596-1.439-.48-.72,1.708-3.225,3.551-5.04,2.64 .429-1.647.685-2.265.479-3.6 .556-.325.796-.965 1.921-.72 1.058.062.246,1.993 1.439,1.92 .194-.046.239-.241.48-.24-.074-1.366-1.444-1.437-1.92-2.4-.027-1.653.049-3.41-1.44-3.6-.347.546 1.179,1.754 0,2.64-1.22.18-1.841-.239-2.16-.96-1.195.191-1.414.137-2.16-.48 .245-1.915 2.568-1.752 3.36-3.12 .734-.174.706.414 1.44.24 .979-2.781 1.226-6.294 1.68-9.6 1.461.298.394,3.126.72,4.56 1.401.81 2.485-.076 4.32,0 .012-1.292-1.294-1.266-1.681-2.16-2.14-9.283-1.419-20.725 1.923-28.56zm-10.32,38.16c.435.315 1.576-.201 1.92-.72-.945-.065-1.668.092-1.92.72z" fill-rule="evenodd"></path>
	<path d="m84.24,79.92c.107,1.388-.522,2.038-1.681,2.16-1.247-1.113.215-2.314 1.681-2.16z" fill-rule="evenodd"></path>
	<path d="m85.92,82.32c.156.876-.162,1.278-.479,1.68-1.518-.346-2.19.812-3.841.96-.076-.563-.379-.901-.239-1.68 .393-.263 1.649-.888 2.159-.24 .56-.432 1.394-1.492 2.4-.72z" fill-rule="evenodd"></path>
	<path d="m114.48,82.08c.098.578-.438.521-.24,1.2 1.033.313.943-.496 1.2-.96 .716.564 1.839.721 2.88.96 .013,1.854-2.631,1.05-2.4,3.12-1.012.55-2.074.098-2.4-.72 .141-.5.505-.776.721-1.2-.359-.441-1.002-.598-1.2-1.2-.075-.954.46-1.299 1.439-1.2z" fill-rule="evenodd"></path>
	<path d="m76.56,84.24c-.233.886-.674,1.566-1.92,1.44-1.594-1.318.862-2.708 1.92-1.44z" fill-rule="evenodd"></path>
	<path d="m83.52,87.12c.105.825-.095,1.345-.239,1.92 .88-.08.969-.951 2.16-.72 .33.31.237,1.042.239,1.68-.973.707-2.444.915-3.359,1.68-.678.037-.602-.679-.96-.96 1.425-1.323-1.077-3.918 2.159-3.6z" fill-rule="evenodd"></path>
	<path d="m36.48,91.68h.72c.491.389-.011,1.771.48,2.16 .703-.257 1.239-.681 2.4-.48-.172.708-.274,1.486-.72,1.92h-1.44c-.239,2 .713,2.807 1.2,4.08 1.109-.94 2.693.069 4.08-.48 .206.194.143.658.48.72-.132.908-.692,1.388-1.68,1.44-.448.427.195.61 0,1.44-.373.347-.935.505-1.44.72 .612,2.268 2.082,3.678 3.12,5.52 .923-.836 1.874-1.647 2.4-2.88 .563-.076.901-.379 1.68-.24v1.44c-1.609.55-1.462,2.858-3.6,2.88 .538,1.862 1.499,3.301 2.64,4.56 .481-.319.535-1.065.72-1.68 2.328.648 1.722-1.638 3.36-1.68 .541.434.565,1.212.24,1.92-1.706.294-2.195,1.805-3.84,2.16-.098.578.438.521.24,1.2-1.309-.123-1.754-1.804-2.4-2.88s-1.323-2.2-1.92-3.36c-1.197-2.325-2.938-4.486-3.84-6.72-.287-.71-.422-1.49-.72-2.16-.428-.961-.6-1.7-.96-2.4-.643-1.248-1.725-4.622-1.2-7.2zm3.6,10.08c.674-.525 1.942-.458 1.92-1.68-1.146.055-2.032.368-1.92,1.68z" fill-rule="evenodd"></path>
	<path d="m122.64,92.64c-.088.712-.416,1.184-.96,1.44 .626.831.524,2.208-.479,2.64-.896.096-1.408-.192-1.44-.96-.939.14-1.394-.206-1.92-.48-.528-2.528 2.599-1.401 2.88-3.12 .938-.139 1.392.207 1.919.48z" fill-rule="evenodd"></path>
	<path d="m84,94.56c.314,1.195-.739,1.021-.72,1.92 .766.672.945-1.284 2.399-.72 .276.284.271.849.24,1.44-1.29.629-2.509,1.331-3.84,1.92-.135-.346-.374-.586-.72-.72 1.396-1.044.042-5.468 2.641-3.84z" fill-rule="evenodd"></path>
	<path d="m94.56,111.6c.107,1.546-.725,2.155-2.399,1.92-.435-1.88 1.016-2.589 2.399-1.92z" fill-rule="evenodd"></path>
	<path d="m100.8,120.48c-.013,1.666-2.392.968-2.64,2.399 .359.28.587.693 1.2.72 1.203-.315 1.014-2.025 2.88-1.68 .476.454.116,1.134 0,1.68 .521.519 2.162-.082 2.399.721-.928,1.106-2.062-.06-3.12-.24-2.508-.429-5.756-.624-8.399-.48-.713.039-1.247.32-1.92.24-.624-.073-1.097-.588-1.681-.72-2.36-.535-4.386.505-6.479.24 .493-.547 1.251-.829 2.4-.721 1.001-.438.734-2.145 2.159-2.159 .873.007 1.055.705.96,1.68 1.189-.012 1.451-.95 2.4-1.2 1.69.47 1.625,2.695 4.32,2.16 1.229-1.326 3.195-3.95 5.521-2.64z" fill-rule="evenodd"></path>
	<path d="m114.96,122.88c-.8.641-2.569.311-2.4,1.92-.814-.065-1.945.186-2.399-.24 .16-1.039.832-1.567 1.92-1.68-.132-1.668 3.34-2.688 2.879,0z" fill-rule="evenodd"></path>
	<path d="m97.68,129.36c.19.83-.267,1.013-.479,1.439-.103.663.895.226.96.72 .098.579-.438.522-.24,1.2-.546.174-1.226.214-1.68.48 .149.569 1.477-.037 1.68.479-.771.321-2.18-.18-3.36-.239-.697-.036-1.908.868-1.92-.24 1.075.035 2.055-.026 2.641-.48-.475-.405-1.498-.262-2.16-.479v-.721c.635-.965 1.908-1.292 2.16-2.64 .989-.274 1.883-.272 2.398.481zm-1.44,2.4c-.168.831.841.861 1.2.48 .168-.831-.841-.861-1.2-.48z" fill-rule="evenodd"></path>
	<path d="m88.32,128.64c.44,1.642-1.296,1.104-1.681,1.92 .326,1.649 1.814-.561 2.88.48 .115.755-.342.938-.479,1.44-1.829.242-2.176-.629-3.6-.24 .003-.478.654-.306.479-.96-1.034-.086-.927.597-.72,1.2-1.021.22-1.025-.575-.96-1.44 1.103-.417 1.753-1.287 2.16-2.4 .865-.084 1.158-.367 1.921,0z" fill-rule="evenodd"></path>
	<path d="m66.72,132.48c.616-1.544 1.5-2.82 3.6-2.881-.406,1.604-2.005,4.001-3.6,2.881z" fill-rule="evenodd"></path>
	<path d="m28.8,131.52c.286,1.486-.983,1.418-1.92,1.681-.961-1.323.672-2.52 1.92-1.681z" fill-rule="evenodd"></path>
	<path d="m123.12,177.84c-.479.642-1.303.938-.96,2.4 1.007.127 1.341-.42 2.16-.48 .007-.728-1.208-.232-1.2-.96-.014-.894 1.067-.692 1.92-.72 .115.755-.342.938-.48,1.439 2.993.095 5.025-1.99 7.44-1.68-.907,1.653-3.742,1.378-5.04,2.641-2.319-.705-3.685,1.366-6.479.96-1.581-1.704.447-5.668 2.639-3.6z" fill-rule="evenodd"></path>
	<path d="m70.8,178.08c.396.412.083,2.15-.72,2.16 .748.818-.335,1.261-.24,2.16-1.247-.153-1.923.529-2.88,0-.139-.779.164-1.117.24-1.681 .877-.052.92-.329 1.68,0 .328-1.192 1.713-1.326 1.92-2.639z" fill-rule="evenodd"></path>
	<path d="m83.04,164.16c.388-.067.413.227.72.24 .806,3.379-.938,6.296-1.2,8.64-.302,2.7.126,5.548 0,8.4-.036.833-.331,1.56-.479,2.399 .43,1.258 1.049-.011 1.92.48 .412-.628.398-1.683 1.44-1.681 .245.703.322,1.201 1.199.721v1.199c1.002-.355.507-2.735 2.641-1.68 .173.733-.246.875-.24,1.44 1.044-.004 2.159-.08 2.88.239 .982-.937 1.385-2.454 2.4-3.359 .906-.027 1.29.47 1.439,1.2-.479.445-1.818.886-.96,1.92 .53-.351.476-1.285 1.2-1.44 .675.045 1.022.418.96,1.2 1.387-.107 2.459.101 3.6.24-.459-1.275.197-3.83 2.4-3.84 .347.373.967.473.72,1.439 .632.408 1.762.318 1.44,1.68 2.213.518 5.09.096 6.72-.72-.106-.613-.336-1.104-.72-1.439-.72.16-.363,1.396-.96,1.68-.815.015-1.318-.281-1.68-.72 .979-.86 1.134-2.546 2.399-3.12 1.141.699 1.655,2.024 2.4,3.12 .772.053 1.016-.425 1.92-.24 .297,1.495-1.305,1.553-2.16,1.2-4.37,2.258-10.292,1.686-15.84,1.68-5.256-.006-10.108.843-14.641-.24-.893.228-.187,2.054-1.439,1.92 .202-4.578-.314-10.452.24-14.88 1.695-1.51 1.023-5.823 1.681-7.678z" fill-rule="evenodd"></path>

</svg>
